<?xml version="1.0" encoding="utf-8"?>
<!-- Generator: Adobe Adobe Illustrator 24.2.0, SVG Export Plug-In . SVG Version: 6.00 Build 0)  -->
<svg version="1.1" id="Layer_1" xmlns="http://www.w3.org/2000/svg" xmlns:xlink="http://www.w3.org/1999/xlink" x="0px" y="0px"
	 width="568px" height="325px" viewBox="0 0 568 325" style="enable-background:new 0 0 568 325;" xml:space="preserve">
<style type="text/css">
	.st0{fill:none;stroke:#FFFFFF;stroke-width:0.285;stroke-miterlimit:10;}
	.st1{fill:none;stroke:#000000;stroke-width:0.285;stroke-miterlimit:10;}
	.st2{fill:none;stroke:#FFFFFF;stroke-width:1.4253;stroke-miterlimit:10;}
	.st3{fill:#CBCBCB;stroke:#F2F1F1;stroke-width:0.285;stroke-miterlimit:10;}
	.st4{fill:none;stroke:#F2F1F1;stroke-width:3.163;stroke-miterlimit:10;}
	.st5{fill:none;stroke:#F2F1F1;stroke-width:2.6764;stroke-miterlimit:10;}
	.st6{fill:#F2F1F1;}
	.st7{clip-path:url(#SVGID_2_);}
	.st8{fill:none;stroke:#F2F1F1;stroke-width:0.285;stroke-miterlimit:10;}
	.st9{clip-path:url(#SVGID_6_);}
	.st10{fill:#E6E5E5;}
	.st11{fill:none;stroke:#F2F1F1;stroke-width:0.3563;stroke-miterlimit:10;}
	.st12{clip-path:url(#SVGID_10_);}
	.st13{clip-path:url(#SVGID_14_);}
	.st14{fill:#B2D5DE;stroke:#F2F1F1;stroke-width:0.285;stroke-miterlimit:10;}
	.st15{fill:#B2D5DE;stroke:#CBCBCB;stroke-width:3.163;stroke-miterlimit:10;}
	.st16{fill:#B2D5DE;stroke:#F2F1F1;stroke-width:3.163;stroke-miterlimit:10;}
	.st17{fill:#B2D5DE;stroke:#CBCBCB;stroke-width:2;stroke-miterlimit:10;}
	.st18{fill:#B2D5DE;stroke:#F2F1F1;stroke-width:2;stroke-miterlimit:10;}
	.st19{fill:#E8AECC;stroke:#F2F1F1;stroke-width:0.285;stroke-miterlimit:10;}
	.st20{fill:#E8AECC;stroke:#CBCBCB;stroke-width:3.163;stroke-miterlimit:10;}
	.st21{fill:#E8AECC;stroke:#F2F1F1;stroke-width:3.163;stroke-miterlimit:10;}
	.st22{fill:#E8AECC;stroke:#CBCBCB;stroke-width:2;stroke-miterlimit:10;}
	.st23{fill:#E8AECC;stroke:#F2F1F1;stroke-width:2;stroke-miterlimit:10;}
</style>
<g>
	<line class="st0" x1="284" y1="324.71" x2="284" y2="0.29"/>
	<line class="st0" x1="284" y1="324.71" x2="284" y2="0.29"/>
	<line class="st0" x1="324.55" y1="324.71" x2="324.55" y2="0.29"/>
	<line class="st0" x1="243.45" y1="324.71" x2="243.45" y2="0.29"/>
	<line class="st1" x1="243.45" y1="324.71" x2="324.55" y2="324.71"/>
	<line class="st1" x1="243.45" y1="284.16" x2="324.55" y2="284.16"/>
	<line class="st1" x1="243.45" y1="243.61" x2="324.55" y2="243.61"/>
	<line class="st0" x1="243.45" y1="203.05" x2="324.55" y2="203.05"/>
	<line class="st0" x1="243.45" y1="162.5" x2="324.55" y2="162.5"/>
	<line class="st0" x1="243.45" y1="121.95" x2="324.55" y2="121.95"/>
	<line class="st1" x1="243.45" y1="81.39" x2="324.55" y2="81.39"/>
	<line class="st1" x1="243.45" y1="40.84" x2="324.55" y2="40.84"/>
	<line class="st1" x1="243.45" y1="0.29" x2="324.55" y2="0.29"/>
	<line class="st0" x1="365.11" y1="324.71" x2="365.11" y2="0.29"/>
	<line class="st0" x1="202.89" y1="324.71" x2="202.89" y2="0.29"/>
	<line class="st1" x1="202.89" y1="324.71" x2="365.11" y2="324.71"/>
	<line class="st1" x1="202.89" y1="284.16" x2="365.11" y2="284.16"/>
	<line class="st1" x1="202.89" y1="243.61" x2="365.11" y2="243.61"/>
	<line class="st0" x1="202.89" y1="203.05" x2="365.11" y2="203.05"/>
	<line class="st0" x1="202.89" y1="162.5" x2="365.11" y2="162.5"/>
	<line class="st0" x1="202.89" y1="121.95" x2="365.11" y2="121.95"/>
	<line class="st1" x1="202.89" y1="81.39" x2="365.11" y2="81.39"/>
	<line class="st1" x1="202.89" y1="40.84" x2="365.11" y2="40.84"/>
	<line class="st1" x1="202.89" y1="0.29" x2="365.11" y2="0.29"/>
	<line class="st0" x1="405.66" y1="324.71" x2="405.66" y2="0.29"/>
	<line class="st0" x1="162.34" y1="324.71" x2="162.34" y2="0.29"/>
	<line class="st1" x1="162.34" y1="324.71" x2="405.66" y2="324.71"/>
	<line class="st1" x1="162.34" y1="284.16" x2="405.66" y2="284.16"/>
	<line class="st1" x1="162.34" y1="243.61" x2="405.66" y2="243.61"/>
	<line class="st0" x1="162.34" y1="203.05" x2="405.66" y2="203.05"/>
	<line class="st0" x1="162.34" y1="162.5" x2="405.66" y2="162.5"/>
	<line class="st0" x1="162.34" y1="121.95" x2="405.66" y2="121.95"/>
	<line class="st1" x1="162.34" y1="81.39" x2="405.66" y2="81.39"/>
	<line class="st1" x1="162.34" y1="40.84" x2="405.66" y2="40.84"/>
	<line class="st1" x1="162.34" y1="0.29" x2="405.66" y2="0.29"/>
	<line class="st0" x1="446.21" y1="324.71" x2="446.21" y2="0.29"/>
	<line class="st0" x1="121.79" y1="324.71" x2="121.79" y2="0.29"/>
	<line class="st0" x1="121.79" y1="324.71" x2="446.21" y2="324.71"/>
	<line class="st0" x1="121.79" y1="284.16" x2="446.21" y2="284.16"/>
	<line class="st0" x1="121.79" y1="243.61" x2="446.21" y2="243.61"/>
	<line class="st0" x1="121.79" y1="203.05" x2="446.21" y2="203.05"/>
	<line class="st0" x1="121.79" y1="162.5" x2="446.21" y2="162.5"/>
	<line class="st0" x1="121.79" y1="121.95" x2="446.21" y2="121.95"/>
	<line class="st0" x1="121.79" y1="81.39" x2="446.21" y2="81.39"/>
	<line class="st0" x1="121.79" y1="40.84" x2="446.21" y2="40.84"/>
	<line class="st1" x1="121.79" y1="0.29" x2="446.21" y2="0.29"/>
	<line class="st0" x1="486.76" y1="324.71" x2="486.76" y2="0.29"/>
	<line class="st0" x1="81.24" y1="324.71" x2="81.24" y2="0.29"/>
	<line class="st0" x1="81.24" y1="324.71" x2="486.76" y2="324.71"/>
	<line class="st0" x1="81.24" y1="284.16" x2="486.76" y2="284.16"/>
	<line class="st0" x1="81.24" y1="243.61" x2="486.76" y2="243.61"/>
	<line class="st0" x1="81.24" y1="203.05" x2="486.76" y2="203.05"/>
	<line class="st0" x1="81.24" y1="162.5" x2="486.76" y2="162.5"/>
	<line class="st0" x1="81.24" y1="121.95" x2="486.76" y2="121.95"/>
	<line class="st0" x1="81.24" y1="81.39" x2="486.76" y2="81.39"/>
	<line class="st0" x1="81.24" y1="40.84" x2="486.76" y2="40.84"/>
	<line class="st1" x1="81.24" y1="0.29" x2="486.76" y2="0.29"/>
	<line class="st0" x1="527.32" y1="324.71" x2="527.32" y2="0.29"/>
	<line class="st0" x1="40.68" y1="324.71" x2="40.68" y2="0.29"/>
	<line class="st0" x1="40.68" y1="324.71" x2="527.32" y2="324.71"/>
	<line class="st0" x1="40.68" y1="284.16" x2="527.32" y2="284.16"/>
	<line class="st0" x1="40.68" y1="243.61" x2="527.32" y2="243.61"/>
	<line class="st0" x1="40.68" y1="203.05" x2="527.32" y2="203.05"/>
	<line class="st0" x1="40.68" y1="162.5" x2="527.32" y2="162.5"/>
	<line class="st0" x1="40.68" y1="121.95" x2="527.32" y2="121.95"/>
	<line class="st0" x1="40.68" y1="81.39" x2="527.32" y2="81.39"/>
	<line class="st0" x1="40.68" y1="40.84" x2="527.32" y2="40.84"/>
	<line class="st1" x1="40.68" y1="0.29" x2="527.32" y2="0.29"/>
	<line class="st0" x1="567.87" y1="324.71" x2="567.87" y2="0.29"/>
	<line class="st0" x1="0.13" y1="324.71" x2="0.13" y2="0.29"/>
	<line class="st0" x1="0.13" y1="324.71" x2="567.87" y2="324.71"/>
	<line class="st0" x1="0.13" y1="284.16" x2="567.87" y2="284.16"/>
	<line class="st0" x1="0.13" y1="243.61" x2="567.87" y2="243.61"/>
	<line class="st0" x1="0.13" y1="203.05" x2="567.87" y2="203.05"/>
	<line class="st0" x1="0.13" y1="162.5" x2="567.87" y2="162.5"/>
	<line class="st0" x1="0.13" y1="121.95" x2="567.87" y2="121.95"/>
	<line class="st0" x1="0.13" y1="81.39" x2="567.87" y2="81.39"/>
	<line class="st0" x1="0.13" y1="40.84" x2="567.87" y2="40.84"/>
	<line class="st1" x1="0.13" y1="0.29" x2="567.87" y2="0.29"/>
	<polyline class="st2" points="121.79,284.16 121.79,324.71 0.13,324.71 	"/>
	<polyline class="st2" points="0.13,61.12 0.13,0.29 284,0.29 	"/>
	<line class="st2" x1="202.89" y1="324.71" x2="284" y2="324.71"/>
	<polyline class="st2" points="446.21,284.16 446.21,324.71 567.87,324.71 	"/>
	<polyline class="st2" points="486.76,284.16 567.87,284.16 567.87,243.61 	"/>
	<polyline class="st2" points="81.24,284.33 0.13,284.33 0.13,243.78 	"/>
	<polyline class="st2" points="567.87,61.12 567.87,0.29 284,0.29 	"/>
	<line class="st2" x1="365.11" y1="324.71" x2="284" y2="324.71"/>
	<g>
		
			<rect x="177" y="87.48" transform="matrix(0.7071 -0.7071 0.7071 0.7071 -18.2679 159.2385)" class="st3" width="12.17" height="28.39"/>
		<line class="st4" x1="178.68" y1="106.07" x2="187.49" y2="97.27"/>
		<line class="st5" x1="178.68" y1="106.07" x2="187.49" y2="97.27"/>
		<polygon class="st6" points="179.8,107.19 177.56,104.95 176.88,105.99 178.77,107.88 		"/>
		<line class="st5" x1="178.68" y1="106.07" x2="177.82" y2="106.93"/>
		<g>
			<defs>
				
					<rect id="SVGID_1_" x="174.46" y="95.62" transform="matrix(0.7071 -0.7071 0.7071 0.7071 -16.7714 155.6254)" width="10.02" height="4.87"/>
			</defs>
			<clipPath id="SVGID_2_">
				<use xlink:href="#SVGID_1_"  style="overflow:visible;"/>
			</clipPath>
			<g class="st7">
				<defs>
					<rect id="SVGID_3_" x="168.95" y="87.53" width="21.05" height="21.05"/>
				</defs>
				<clipPath id="SVGID_4_">
					<use xlink:href="#SVGID_3_"  style="overflow:visible;"/>
				</clipPath>
			</g>
		</g>
		
			<rect x="174.46" y="95.62" transform="matrix(0.7071 -0.7071 0.7071 0.7071 -16.7714 155.6254)" class="st8" width="10.02" height="4.87"/>
		<line class="st8" x1="178.83" y1="102.14" x2="175.39" y2="98.7"/>
		<line class="st8" x1="180.01" y1="100.96" x2="176.57" y2="97.52"/>
		<line class="st8" x1="181.19" y1="99.78" x2="177.75" y2="96.34"/>
		<line class="st8" x1="182.37" y1="98.6" x2="178.93" y2="95.15"/>
		<line class="st8" x1="183.55" y1="97.42" x2="180.11" y2="93.98"/>
		<line class="st8" x1="175.93" y1="101.6" x2="183.01" y2="94.52"/>
	</g>
	<g>
		
			<rect x="371.12" y="96.05" transform="matrix(0.7071 -0.7071 0.7071 0.7071 40.6334 302.3715)" class="st3" width="28.39" height="12.17"/>
		<line class="st4" x1="389.71" y1="106.54" x2="380.91" y2="97.73"/>
		<line class="st5" x1="389.71" y1="106.54" x2="380.91" y2="97.73"/>
		<polygon class="st6" points="390.83,105.42 388.6,107.66 389.63,108.35 391.52,106.45 		"/>
		<line class="st5" x1="389.71" y1="106.54" x2="390.57" y2="107.4"/>
		<g>
			<defs>
				
					<rect id="SVGID_5_" x="379.27" y="100.74" transform="matrix(0.7071 -0.7071 0.7071 0.7071 37.0203 300.8747)" width="4.87" height="10.02"/>
			</defs>
			<clipPath id="SVGID_6_">
				<use xlink:href="#SVGID_5_"  style="overflow:visible;"/>
			</clipPath>
			<g class="st9">
				<defs>
					<rect id="SVGID_7_" x="371.17" y="95.22" width="21.05" height="21.05"/>
				</defs>
				<clipPath id="SVGID_8_">
					<use xlink:href="#SVGID_7_"  style="overflow:visible;"/>
				</clipPath>
			</g>
		</g>
		
			<rect x="379.27" y="100.74" transform="matrix(0.7071 -0.7071 0.7071 0.7071 37.0203 300.8747)" class="st8" width="4.87" height="10.02"/>
		<line class="st8" x1="385.78" y1="106.39" x2="382.34" y2="109.83"/>
		<line class="st8" x1="384.6" y1="105.21" x2="381.16" y2="108.65"/>
		<line class="st8" x1="383.42" y1="104.03" x2="379.98" y2="107.47"/>
		<line class="st8" x1="382.24" y1="102.85" x2="378.79" y2="106.29"/>
		<line class="st8" x1="381.06" y1="101.67" x2="377.62" y2="105.11"/>
		<line class="st8" x1="385.24" y1="109.29" x2="378.16" y2="102.21"/>
	</g>
	<g>
		<rect x="339.18" y="290.24" class="st3" width="12.17" height="28.39"/>
		<line class="st4" x1="351.49" y1="304.44" x2="339.04" y2="304.44"/>
		<line class="st5" x1="351.49" y1="304.44" x2="339.04" y2="304.44"/>
		<polygon class="st6" points="351.49,302.85 351.49,306.02 352.7,305.77 352.7,303.1 		"/>
		<line class="st5" x1="351.49" y1="304.44" x2="352.7" y2="304.44"/>
		
			<rect x="346.27" y="306.43" transform="matrix(0.9962 -0.0872 0.0872 0.9962 -25.724 31.4885)" class="st8" width="2.92" height="7.79"/>
		
			<rect x="342.88" y="306.73" transform="matrix(0.9962 -0.0872 0.0872 0.9962 -25.7638 31.1952)" class="st8" width="2.92" height="7.79"/>
		<rect x="345.4" y="292.53" class="st8" width="4.87" height="2.92"/>
		<path class="st10" d="M348.73,307.8c-0.06-0.67-0.65-1.16-1.32-1.11c-0.67,0.06-1.16,0.65-1.11,1.32s0.65,1.16,1.32,1.11
			C348.29,309.05,348.79,308.46,348.73,307.8z"/>
		<path class="st6" d="M348.49,307.82c-0.05-0.54-0.52-0.93-1.05-0.88c-0.54,0.05-0.93,0.52-0.88,1.05
			c0.05,0.54,0.52,0.93,1.05,0.88C348.14,308.82,348.54,308.35,348.49,307.82z"/>
		<path class="st10" d="M345.34,308.09c-0.06-0.67-0.65-1.16-1.32-1.11c-0.67,0.06-1.16,0.65-1.11,1.32s0.65,1.16,1.32,1.11
			C344.9,309.35,345.4,308.76,345.34,308.09z"/>
		<path class="st6" d="M345.09,308.11c-0.05-0.54-0.52-0.93-1.05-0.88c-0.54,0.05-0.93,0.52-0.88,1.05
			c0.05,0.54,0.52,0.93,1.05,0.88C344.75,309.12,345.14,308.65,345.09,308.11z"/>
		<path class="st10" d="M348.94,310.22c-0.06-0.67-0.65-1.16-1.32-1.11c-0.67,0.06-1.16,0.65-1.11,1.32
			c0.06,0.67,0.65,1.16,1.32,1.11S349,310.89,348.94,310.22z"/>
		<path class="st6" d="M348.7,310.24c-0.05-0.54-0.52-0.93-1.05-0.88c-0.54,0.05-0.93,0.52-0.88,1.05c0.05,0.54,0.52,0.93,1.05,0.88
			S348.75,310.78,348.7,310.24z"/>
		<path class="st10" d="M345.55,310.52c-0.06-0.67-0.65-1.16-1.32-1.11c-0.67,0.06-1.16,0.65-1.11,1.32s0.65,1.16,1.32,1.11
			C345.11,311.78,345.61,311.19,345.55,310.52z"/>
		<path class="st6" d="M345.31,310.54c-0.05-0.54-0.52-0.93-1.05-0.88c-0.54,0.05-0.93,0.52-0.88,1.05
			c0.05,0.54,0.52,0.93,1.05,0.88C344.96,311.54,345.35,311.07,345.31,310.54z"/>
		<path class="st10" d="M349.15,312.64c-0.06-0.67-0.65-1.16-1.32-1.11c-0.67,0.06-1.16,0.65-1.11,1.32
			c0.06,0.67,0.65,1.16,1.32,1.11C348.72,313.9,349.21,313.31,349.15,312.64z"/>
		<path class="st6" d="M348.91,312.66c-0.05-0.54-0.52-0.93-1.05-0.88c-0.54,0.05-0.93,0.52-0.88,1.05
			c0.05,0.54,0.52,0.93,1.05,0.88C348.56,313.67,348.96,313.2,348.91,312.66z"/>
		<path class="st10" d="M345.76,312.94c-0.06-0.67-0.65-1.16-1.32-1.11c-0.67,0.06-1.16,0.65-1.11,1.32
			c0.06,0.67,0.65,1.16,1.32,1.11C345.32,314.2,345.82,313.61,345.76,312.94z"/>
		<path class="st6" d="M345.52,312.96c-0.05-0.54-0.52-0.93-1.05-0.88c-0.54,0.05-0.93,0.52-0.88,1.05
			c0.05,0.54,0.52,0.93,1.05,0.88C345.17,313.97,345.57,313.5,345.52,312.96z"/>
	</g>
	<g>
		<rect x="216.98" y="290.24" class="st3" width="12.17" height="28.39"/>
		<line class="st4" x1="229.29" y1="304.44" x2="216.84" y2="304.44"/>
		<line class="st5" x1="229.29" y1="304.44" x2="216.84" y2="304.44"/>
		<polygon class="st6" points="229.29,302.85 229.29,306.02 230.51,305.77 230.51,303.1 		"/>
		<line class="st5" x1="229.29" y1="304.44" x2="230.51" y2="304.44"/>
		
			<rect x="224.08" y="306.43" transform="matrix(0.9962 -0.0872 0.0872 0.9962 -26.189 20.8382)" class="st8" width="2.92" height="7.79"/>
		
			<rect x="220.68" y="306.73" transform="matrix(0.9962 -0.0872 0.0872 0.9962 -26.2289 20.5445)" class="st8" width="2.92" height="7.79"/>
		<rect x="223.21" y="292.53" class="st8" width="4.87" height="2.92"/>
		<path class="st10" d="M226.54,307.8c-0.06-0.67-0.65-1.16-1.32-1.11c-0.67,0.06-1.16,0.65-1.11,1.32s0.65,1.16,1.32,1.11
			C226.1,309.05,226.59,308.46,226.54,307.8z"/>
		<path class="st6" d="M226.29,307.82c-0.05-0.54-0.52-0.93-1.05-0.88c-0.54,0.05-0.93,0.52-0.88,1.05
			c0.05,0.54,0.52,0.93,1.05,0.88C225.94,308.82,226.34,308.35,226.29,307.82z"/>
		<path class="st10" d="M223.14,308.09c-0.06-0.67-0.65-1.16-1.32-1.11c-0.67,0.06-1.16,0.65-1.11,1.32s0.65,1.16,1.32,1.11
			C222.71,309.35,223.2,308.76,223.14,308.09z"/>
		<path class="st6" d="M222.9,308.11c-0.05-0.54-0.52-0.93-1.05-0.88c-0.54,0.05-0.93,0.52-0.88,1.05c0.05,0.54,0.52,0.93,1.05,0.88
			C222.55,309.12,222.95,308.65,222.9,308.11z"/>
		<path class="st10" d="M226.75,310.22c-0.06-0.67-0.65-1.16-1.32-1.11c-0.67,0.06-1.16,0.65-1.11,1.32
			c0.06,0.67,0.65,1.16,1.32,1.11S226.81,310.89,226.75,310.22z"/>
		<path class="st6" d="M226.51,310.24c-0.05-0.54-0.52-0.93-1.05-0.88c-0.54,0.05-0.93,0.52-0.88,1.05
			c0.05,0.54,0.52,0.93,1.05,0.88S226.55,310.78,226.51,310.24z"/>
		<path class="st10" d="M223.35,310.52c-0.06-0.67-0.65-1.16-1.32-1.11c-0.67,0.06-1.16,0.65-1.11,1.32s0.65,1.16,1.32,1.11
			C222.92,311.78,223.41,311.19,223.35,310.52z"/>
		<path class="st6" d="M223.11,310.54c-0.05-0.54-0.52-0.93-1.05-0.88c-0.54,0.05-0.93,0.52-0.88,1.05
			c0.05,0.54,0.52,0.93,1.05,0.88C222.76,311.54,223.16,311.07,223.11,310.54z"/>
		<path class="st10" d="M226.96,312.64c-0.06-0.67-0.65-1.16-1.32-1.11c-0.67,0.06-1.16,0.65-1.11,1.32
			c0.06,0.67,0.65,1.16,1.32,1.11C226.52,313.9,227.02,313.31,226.96,312.64z"/>
		<path class="st6" d="M226.72,312.66c-0.05-0.54-0.52-0.93-1.05-0.88c-0.54,0.05-0.93,0.52-0.88,1.05
			c0.05,0.54,0.52,0.93,1.05,0.88C226.37,313.67,226.76,313.2,226.72,312.66z"/>
		<path class="st10" d="M223.57,312.94c-0.06-0.67-0.65-1.16-1.32-1.11c-0.67,0.06-1.16,0.65-1.11,1.32
			c0.06,0.67,0.65,1.16,1.32,1.11C223.13,314.2,223.63,313.61,223.57,312.94z"/>
		<path class="st6" d="M223.32,312.96c-0.05-0.54-0.52-0.93-1.05-0.88c-0.54,0.05-0.93,0.52-0.88,1.05
			c0.05,0.54,0.52,0.93,1.05,0.88C222.98,313.97,223.37,313.5,223.32,312.96z"/>
	</g>
	<g>
		<rect x="290.08" y="136.24" class="st3" width="28.39" height="12.17"/>
		<line class="st4" x1="304.28" y1="136.1" x2="304.28" y2="148.55"/>
		<line class="st5" x1="304.28" y1="136.1" x2="304.28" y2="148.55"/>
		<polygon class="st6" points="302.7,136.1 305.86,136.1 305.61,134.89 302.94,134.89 		"/>
		<line class="st5" x1="304.28" y1="136.1" x2="304.28" y2="134.89"/>
		
			<rect x="306.27" y="138.4" transform="matrix(0.9962 -0.0872 0.0872 0.9962 -11.0094 27.5657)" class="st8" width="7.79" height="2.92"/>
		
			<rect x="306.57" y="141.79" transform="matrix(0.9962 -0.0872 0.0872 0.9962 -11.3044 27.6056)" class="st8" width="7.79" height="2.92"/>
		<rect x="292.37" y="137.32" class="st8" width="2.92" height="4.87"/>
		<path class="st10" d="M307.64,138.86c-0.67,0.06-1.16,0.65-1.11,1.32c0.06,0.67,0.65,1.16,1.32,1.11s1.16-0.65,1.11-1.32
			S308.31,138.8,307.64,138.86z"/>
		<path class="st6" d="M307.66,139.1c-0.54,0.05-0.93,0.52-0.88,1.05s0.52,0.93,1.05,0.88s0.93-0.52,0.88-1.05
			C308.67,139.45,308.19,139.05,307.66,139.1z"/>
		<path class="st10" d="M307.93,142.25c-0.67,0.06-1.16,0.65-1.11,1.32c0.06,0.67,0.65,1.16,1.32,1.11s1.16-0.65,1.11-1.32
			C309.19,142.69,308.6,142.19,307.93,142.25z"/>
		<path class="st6" d="M307.95,142.49c-0.54,0.05-0.93,0.52-0.88,1.05c0.05,0.54,0.52,0.93,1.05,0.88c0.54-0.05,0.93-0.52,0.88-1.05
			C308.96,142.84,308.49,142.45,307.95,142.49z"/>
		<path class="st10" d="M310.06,138.65c-0.67,0.06-1.16,0.65-1.11,1.32c0.06,0.67,0.65,1.16,1.32,1.11s1.16-0.65,1.11-1.32
			S310.73,138.59,310.06,138.65z"/>
		<path class="st6" d="M310.08,138.89c-0.54,0.05-0.93,0.52-0.88,1.05c0.05,0.54,0.52,0.93,1.05,0.88c0.54-0.05,0.93-0.52,0.88-1.05
			C311.09,139.24,310.62,138.84,310.08,138.89z"/>
		<path class="st10" d="M310.36,142.04c-0.67,0.06-1.16,0.65-1.11,1.32c0.06,0.67,0.65,1.16,1.32,1.11s1.16-0.65,1.11-1.32
			C311.62,142.48,311.03,141.98,310.36,142.04z"/>
		<path class="st6" d="M310.38,142.28c-0.54,0.05-0.93,0.52-0.88,1.05c0.05,0.54,0.52,0.93,1.05,0.88c0.54-0.05,0.93-0.52,0.88-1.05
			S310.91,142.24,310.38,142.28z"/>
		<path class="st10" d="M312.48,138.43c-0.67,0.06-1.16,0.65-1.11,1.32s0.65,1.16,1.32,1.11c0.67-0.06,1.16-0.65,1.11-1.32
			C313.74,138.87,313.15,138.38,312.48,138.43z"/>
		<path class="st6" d="M312.51,138.68c-0.54,0.05-0.93,0.52-0.88,1.05c0.05,0.54,0.52,0.93,1.05,0.88c0.54-0.05,0.93-0.52,0.88-1.05
			C313.51,139.03,313.04,138.63,312.51,138.68z"/>
		<path class="st10" d="M312.78,141.83c-0.67,0.06-1.16,0.65-1.11,1.32c0.06,0.67,0.65,1.16,1.32,1.11
			c0.67-0.06,1.16-0.65,1.11-1.32C314.04,142.26,313.45,141.77,312.78,141.83z"/>
		<path class="st6" d="M312.8,142.07c-0.54,0.05-0.93,0.52-0.88,1.05c0.05,0.54,0.52,0.93,1.05,0.88c0.54-0.05,0.93-0.52,0.88-1.05
			C313.81,142.42,313.34,142.02,312.8,142.07z"/>
	</g>
	<g>
		<rect x="249.53" y="136.24" class="st3" width="28.39" height="12.17"/>
		<line class="st4" x1="263.72" y1="136.1" x2="263.72" y2="148.55"/>
		<line class="st5" x1="263.72" y1="136.1" x2="263.72" y2="148.55"/>
		<polygon class="st6" points="262.14,136.1 265.31,136.1 265.06,134.89 262.39,134.89 		"/>
		<line class="st5" x1="263.72" y1="136.1" x2="263.72" y2="134.89"/>
		
			<rect x="265.72" y="138.4" transform="matrix(0.9962 -0.0872 0.0872 0.9962 -11.1637 24.0311)" class="st8" width="7.79" height="2.92"/>
		
			<rect x="266.02" y="141.79" transform="matrix(0.9962 -0.0872 0.0872 0.9962 -11.4587 24.0709)" class="st8" width="7.79" height="2.92"/>
		<rect x="251.82" y="137.32" class="st8" width="2.92" height="4.87"/>
		<path class="st10" d="M267.08,138.86c-0.67,0.06-1.16,0.65-1.11,1.32c0.06,0.67,0.65,1.16,1.32,1.11s1.16-0.65,1.11-1.32
			C268.34,139.29,267.75,138.8,267.08,138.86z"/>
		<path class="st6" d="M267.1,139.1c-0.54,0.05-0.93,0.52-0.88,1.05c0.05,0.54,0.52,0.93,1.05,0.88c0.54-0.05,0.93-0.52,0.88-1.05
			C268.11,139.45,267.64,139.05,267.1,139.1z"/>
		<path class="st10" d="M267.38,142.25c-0.67,0.06-1.16,0.65-1.11,1.32c0.06,0.67,0.65,1.16,1.32,1.11s1.16-0.65,1.11-1.32
			C268.64,142.69,268.05,142.19,267.38,142.25z"/>
		<path class="st6" d="M267.4,142.49c-0.54,0.05-0.93,0.52-0.88,1.05c0.05,0.54,0.52,0.93,1.05,0.88c0.54-0.05,0.93-0.52,0.88-1.05
			C268.41,142.84,267.94,142.45,267.4,142.49z"/>
		<path class="st10" d="M269.51,138.65c-0.67,0.06-1.16,0.65-1.11,1.32c0.06,0.67,0.65,1.16,1.32,1.11
			c0.67-0.06,1.16-0.65,1.11-1.32S270.18,138.59,269.51,138.65z"/>
		<path class="st6" d="M269.53,138.89c-0.54,0.05-0.93,0.52-0.88,1.05c0.05,0.54,0.52,0.93,1.05,0.88c0.54-0.05,0.93-0.52,0.88-1.05
			S270.06,138.84,269.53,138.89z"/>
		<path class="st10" d="M269.8,142.04c-0.67,0.06-1.16,0.65-1.11,1.32c0.06,0.67,0.65,1.16,1.32,1.11s1.16-0.65,1.11-1.32
			C271.06,142.48,270.47,141.98,269.8,142.04z"/>
		<path class="st6" d="M269.83,142.28c-0.54,0.05-0.93,0.52-0.88,1.05c0.05,0.54,0.52,0.93,1.05,0.88c0.54-0.05,0.93-0.52,0.88-1.05
			C270.83,142.63,270.36,142.24,269.83,142.28z"/>
		<path class="st10" d="M271.93,138.43c-0.67,0.06-1.16,0.65-1.11,1.32c0.06,0.67,0.65,1.16,1.32,1.11
			c0.67-0.06,1.16-0.65,1.11-1.32C273.19,138.87,272.6,138.38,271.93,138.43z"/>
		<path class="st6" d="M271.95,138.68c-0.54,0.05-0.93,0.52-0.88,1.05c0.05,0.54,0.52,0.93,1.05,0.88c0.54-0.05,0.93-0.52,0.88-1.05
			C272.96,139.03,272.49,138.63,271.95,138.68z"/>
		<path class="st10" d="M272.23,141.83c-0.67,0.06-1.16,0.65-1.11,1.32c0.06,0.67,0.65,1.16,1.32,1.11
			c0.67-0.06,1.16-0.65,1.11-1.32C273.49,142.26,272.9,141.77,272.23,141.83z"/>
		<path class="st6" d="M272.25,142.07c-0.54,0.05-0.93,0.52-0.88,1.05c0.05,0.54,0.52,0.93,1.05,0.88c0.54-0.05,0.93-0.52,0.88-1.05
			C273.26,142.42,272.78,142.02,272.25,142.07z"/>
	</g>
	<g>
		<rect x="217.15" y="6.37" class="st3" width="12.17" height="28.39"/>
		<line class="st4" x1="229.46" y1="20.56" x2="217.01" y2="20.56"/>
		<line class="st5" x1="229.46" y1="20.56" x2="217.01" y2="20.56"/>
		<polygon class="st6" points="229.46,18.98 229.46,22.15 230.68,21.9 230.68,19.23 		"/>
		<line class="st5" x1="229.46" y1="20.56" x2="230.68" y2="20.56"/>
		<rect x="224.21" y="15.21" class="st11" width="2.92" height="2.92"/>
		<rect x="219.34" y="15.21" class="st11" width="2.92" height="2.92"/>
		<rect x="222.99" y="23" class="st11" width="2.92" height="2.92"/>
		<path class="st10" d="M226.89,16.67c0-0.67-0.54-1.22-1.22-1.22c-0.67,0-1.22,0.54-1.22,1.22s0.54,1.22,1.22,1.22
			C226.34,17.89,226.89,17.34,226.89,16.67z"/>
		<path class="st6" d="M226.64,16.67c0-0.54-0.44-0.97-0.97-0.97c-0.54,0-0.97,0.44-0.97,0.97c0,0.54,0.44,0.97,0.97,0.97
			C226.21,17.64,226.64,17.21,226.64,16.67z"/>
		<path class="st10" d="M222.02,16.67c0-0.67-0.54-1.22-1.22-1.22c-0.67,0-1.22,0.54-1.22,1.22s0.54,1.22,1.22,1.22
			C221.48,17.89,222.02,17.34,222.02,16.67z"/>
		<path class="st6" d="M221.78,16.67c0-0.54-0.44-0.97-0.97-0.97c-0.54,0-0.97,0.44-0.97,0.97c0,0.54,0.44,0.97,0.97,0.97
			C221.34,17.64,221.78,17.21,221.78,16.67z"/>
		<path class="st10" d="M225.67,24.46c0-0.67-0.54-1.22-1.22-1.22c-0.67,0-1.22,0.54-1.22,1.22c0,0.67,0.54,1.22,1.22,1.22
			C225.13,25.67,225.67,25.13,225.67,24.46z"/>
		<path class="st6" d="M225.43,24.46c0-0.54-0.44-0.97-0.97-0.97c-0.54,0-0.97,0.44-0.97,0.97c0,0.54,0.44,0.97,0.97,0.97
			C224.99,25.43,225.43,25,225.43,24.46z"/>
		<g>
			<defs>
				<path id="SVGID_9_" d="M225.43,24.46c0-0.54-0.44-0.97-0.97-0.97c-0.54,0-0.97,0.44-0.97,0.97c0,0.54,0.44,0.97,0.97,0.97
					C224.99,25.43,225.43,25,225.43,24.46z"/>
			</defs>
			<clipPath id="SVGID_10_">
				<use xlink:href="#SVGID_9_"  style="overflow:visible;"/>
			</clipPath>
			<g class="st12">
				<defs>
					<rect id="SVGID_11_" x="222.51" y="22.51" width="3.89" height="3.89"/>
				</defs>
				<clipPath id="SVGID_12_">
					<use xlink:href="#SVGID_11_"  style="overflow:visible;"/>
				</clipPath>
			</g>
		</g>
	</g>
	<g>
		<rect x="338.64" y="6.37" class="st3" width="12.17" height="28.39"/>
		<line class="st4" x1="338.5" y1="20.56" x2="350.95" y2="20.56"/>
		<line class="st5" x1="338.5" y1="20.56" x2="350.95" y2="20.56"/>
		<polygon class="st6" points="338.5,22.15 338.5,18.98 337.28,19.23 337.28,21.9 		"/>
		<line class="st5" x1="338.5" y1="20.56" x2="337.28" y2="20.56"/>
		<rect x="340.83" y="23" class="st11" width="2.92" height="2.92"/>
		<rect x="345.7" y="23" class="st11" width="2.92" height="2.92"/>
		<rect x="342.05" y="15.21" class="st11" width="2.92" height="2.92"/>
		<path class="st10" d="M341.08,24.46c0,0.67,0.54,1.22,1.22,1.22c0.67,0,1.22-0.54,1.22-1.22s-0.54-1.22-1.22-1.22
			C341.62,23.24,341.08,23.79,341.08,24.46z"/>
		<path class="st6" d="M341.32,24.46c0,0.54,0.44,0.97,0.97,0.97c0.54,0,0.97-0.44,0.97-0.97c0-0.54-0.44-0.97-0.97-0.97
			C341.76,23.48,341.32,23.92,341.32,24.46z"/>
		<path class="st10" d="M345.94,24.46c0,0.67,0.54,1.22,1.22,1.22c0.67,0,1.22-0.54,1.22-1.22s-0.54-1.22-1.22-1.22
			C346.49,23.24,345.94,23.79,345.94,24.46z"/>
		<path class="st6" d="M346.19,24.46c0,0.54,0.44,0.97,0.97,0.97c0.54,0,0.97-0.44,0.97-0.97c0-0.54-0.44-0.97-0.97-0.97
			C346.62,23.48,346.19,23.92,346.19,24.46z"/>
		<path class="st10" d="M342.29,16.67c0,0.67,0.54,1.22,1.22,1.22c0.67,0,1.22-0.54,1.22-1.22c0-0.67-0.54-1.22-1.22-1.22
			C342.84,15.46,342.29,16,342.29,16.67z"/>
		<path class="st6" d="M342.54,16.67c0,0.54,0.44,0.97,0.97,0.97c0.54,0,0.97-0.44,0.97-0.97c0-0.54-0.44-0.97-0.97-0.97
			C342.97,15.7,342.54,16.13,342.54,16.67z"/>
		<g>
			<defs>
				<path id="SVGID_13_" d="M342.54,16.67c0,0.54,0.44,0.97,0.97,0.97c0.54,0,0.97-0.44,0.97-0.97c0-0.54-0.44-0.97-0.97-0.97
					C342.97,15.7,342.54,16.13,342.54,16.67z"/>
			</defs>
			<clipPath id="SVGID_14_">
				<use xlink:href="#SVGID_13_"  style="overflow:visible;"/>
			</clipPath>
			<g class="st13">
				<defs>
					<rect id="SVGID_15_" x="341.56" y="14.73" width="3.89" height="3.89"/>
				</defs>
				<clipPath id="SVGID_16_">
					<use xlink:href="#SVGID_15_"  style="overflow:visible;"/>
				</clipPath>
			</g>
		</g>
	</g>
	<g>
		<rect x="533.92" y="54.32" class="st3" width="28.39" height="12.17"/>
		<line class="st4" x1="548.11" y1="54.18" x2="548.11" y2="66.63"/>
		<line class="st5" x1="548.11" y1="54.18" x2="548.11" y2="66.63"/>
		<polygon class="st6" points="546.53,54.18 549.69,54.18 549.45,52.96 546.77,52.96 		"/>
		<line class="st5" x1="548.11" y1="54.18" x2="548.11" y2="52.96"/>
		
			<rect x="550.61" y="57.86" transform="matrix(0.9659 -0.2588 0.2588 0.9659 3.551 145.1378)" class="st8" width="4.87" height="2.43"/>
		<rect x="533.92" y="54.32" class="st8" width="8.52" height="6.08"/>
		<path class="st10" d="M535.72,54.79c-0.67,0-1.22,0.54-1.22,1.22c0,0.67,0.54,1.22,1.22,1.22c0.67,0,1.22-0.54,1.22-1.22
			C536.94,55.33,536.39,54.79,535.72,54.79z"/>
		<path class="st6" d="M535.72,55.03c-0.54,0-0.97,0.44-0.97,0.97c0,0.54,0.44,0.97,0.97,0.97c0.54,0,0.97-0.44,0.97-0.97
			C536.7,55.47,536.26,55.03,535.72,55.03z"/>
		<path class="st10" d="M538.16,54.79c-0.67,0-1.22,0.54-1.22,1.22c0,0.67,0.54,1.22,1.22,1.22c0.67,0,1.22-0.54,1.22-1.22
			C539.37,55.33,538.83,54.79,538.16,54.79z"/>
		<path class="st6" d="M538.16,55.03c-0.54,0-0.97,0.44-0.97,0.97c0,0.54,0.44,0.97,0.97,0.97c0.54,0,0.97-0.44,0.97-0.97
			C539.13,55.47,538.69,55.03,538.16,55.03z"/>
		<path class="st10" d="M540.59,54.79c-0.67,0-1.22,0.54-1.22,1.22c0,0.67,0.54,1.22,1.22,1.22s1.22-0.54,1.22-1.22
			C541.81,55.33,541.26,54.79,540.59,54.79z"/>
		<path class="st6" d="M540.59,55.03c-0.54,0-0.97,0.44-0.97,0.97c0,0.54,0.44,0.97,0.97,0.97c0.54,0,0.97-0.44,0.97-0.97
			C541.56,55.47,541.13,55.03,540.59,55.03z"/>
	</g>
	<g>
		
			<rect x="460.69" y="168.3" transform="matrix(0.7071 -0.7071 0.7071 0.7071 7.6753 383.5098)" class="st3" width="12.17" height="28.39"/>
		<line class="st4" x1="471.18" y1="178.09" x2="462.37" y2="186.89"/>
		<line class="st5" x1="471.18" y1="178.09" x2="462.37" y2="186.89"/>
		<polygon class="st6" points="470.06,176.97 472.3,179.21 472.98,178.17 471.09,176.28 		"/>
		<line class="st5" x1="471.18" y1="178.09" x2="472.04" y2="177.23"/>
		<rect x="469.98" y="182.61" transform="matrix(0.5 -0.866 0.866 0.5 75.3381 500.5829)" class="st8" width="2.43" height="4.87"/>
		
			<rect x="458.86" y="169.06" transform="matrix(0.7071 -0.7071 0.7071 0.7071 12.7354 377.3739)" class="st8" width="6.08" height="8.52"/>
		<path class="st10" d="M461.99,169.76c-0.48-0.48-1.25-0.48-1.72,0s-0.48,1.25,0,1.72c0.48,0.48,1.25,0.48,1.72,0
			C462.46,171,462.46,170.23,461.99,169.76z"/>
		<path class="st6" d="M461.81,169.93c-0.38-0.38-1-0.38-1.38,0c-0.38,0.38-0.38,1,0,1.38c0.38,0.38,1,0.38,1.38,0
			C462.19,170.93,462.19,170.31,461.81,169.93z"/>
		<path class="st10" d="M463.71,171.48c-0.48-0.48-1.25-0.48-1.72,0c-0.48,0.48-0.48,1.25,0,1.72s1.25,0.48,1.72,0
			S464.18,171.95,463.71,171.48z"/>
		<path class="st6" d="M463.53,171.65c-0.38-0.38-1-0.38-1.38,0c-0.38,0.38-0.38,1,0,1.38c0.38,0.38,1,0.38,1.38,0
			C463.91,172.65,463.91,172.03,463.53,171.65z"/>
		<path class="st10" d="M465.43,173.2c-0.48-0.48-1.25-0.48-1.72,0c-0.48,0.48-0.48,1.25,0,1.72s1.25,0.48,1.72,0
			C465.9,174.44,465.9,173.67,465.43,173.2z"/>
		<path class="st6" d="M465.26,173.37c-0.38-0.38-1-0.38-1.38,0c-0.38,0.38-0.38,1,0,1.38c0.38,0.38,1,0.38,1.38,0
			S465.64,173.75,465.26,173.37z"/>
	</g>
	<g>
		<rect x="6.9" y="54.57" class="st3" width="28.39" height="12.17"/>
		<line class="st4" x1="21.09" y1="66.88" x2="21.09" y2="54.43"/>
		<line class="st5" x1="21.09" y1="66.88" x2="21.09" y2="54.43"/>
		<polygon class="st6" points="22.68,66.88 19.51,66.88 19.76,68.09 22.43,68.09 		"/>
		<line class="st5" x1="21.09" y1="66.88" x2="21.09" y2="68.09"/>
		
			<rect x="13.73" y="60.76" transform="matrix(0.9659 -0.2588 0.2588 0.9659 -15.4881 6.293)" class="st8" width="4.87" height="2.43"/>
		<rect x="26.77" y="60.65" class="st8" width="8.52" height="6.08"/>
		<path class="st10" d="M33.48,66.27c0.67,0,1.22-0.54,1.22-1.22c0-0.67-0.54-1.22-1.22-1.22c-0.67,0-1.22,0.54-1.22,1.22
			C32.27,65.72,32.81,66.27,33.48,66.27z"/>
		<path class="st6" d="M33.48,66.03c0.54,0,0.97-0.44,0.97-0.97c0-0.54-0.44-0.97-0.97-0.97c-0.54,0-0.97,0.44-0.97,0.97
			C32.51,65.59,32.95,66.03,33.48,66.03z"/>
		<path class="st10" d="M31.05,66.27c0.67,0,1.22-0.54,1.22-1.22c0-0.67-0.54-1.22-1.22-1.22c-0.67,0-1.22,0.54-1.22,1.22
			S30.38,66.27,31.05,66.27z"/>
		<path class="st6" d="M31.05,66.03c0.54,0,0.97-0.44,0.97-0.97c0-0.54-0.44-0.97-0.97-0.97c-0.54,0-0.97,0.44-0.97,0.97
			C30.08,65.59,30.51,66.03,31.05,66.03z"/>
		<path class="st10" d="M28.62,66.27c0.67,0,1.22-0.54,1.22-1.22c0-0.67-0.54-1.22-1.22-1.22c-0.67,0-1.22,0.54-1.22,1.22
			C27.4,65.72,27.95,66.27,28.62,66.27z"/>
		<path class="st6" d="M28.62,66.03c0.54,0,0.97-0.44,0.97-0.97c0-0.54-0.44-0.97-0.97-0.97c-0.54,0-0.97,0.44-0.97,0.97
			C27.64,65.59,28.08,66.03,28.62,66.03z"/>
	</g>
	<g>
		
			<rect x="87.03" y="176.41" transform="matrix(0.7071 -0.7071 0.7071 0.7071 -99.3917 125.027)" class="st3" width="28.39" height="12.17"/>
		<line class="st4" x1="96.82" y1="178.09" x2="105.63" y2="186.89"/>
		<line class="st5" x1="96.82" y1="178.09" x2="105.63" y2="186.89"/>
		<polygon class="st6" points="95.7,179.21 97.94,176.97 96.91,176.28 95.02,178.17 		"/>
		<line class="st5" x1="96.82" y1="178.09" x2="95.96" y2="177.23"/>
		
			<rect x="101.35" y="176.85" transform="matrix(0.5 -0.866 0.866 0.5 -102.3189 178.9031)" class="st8" width="4.87" height="2.43"/>
		
			<rect x="87.79" y="184.32" transform="matrix(0.7071 -0.7071 0.7071 0.7071 -105.5263 119.9659)" class="st8" width="8.52" height="6.08"/>
		<path class="st10" d="M88.49,187.28c-0.48,0.48-0.48,1.25,0,1.72s1.25,0.48,1.72,0c0.48-0.48,0.48-1.25,0-1.72
			C89.74,186.8,88.97,186.8,88.49,187.28z"/>
		<path class="st6" d="M88.66,187.45c-0.38,0.38-0.38,1,0,1.38c0.38,0.38,1,0.38,1.38,0c0.38-0.38,0.38-1,0-1.38
			C89.66,187.07,89.04,187.07,88.66,187.45z"/>
		<path class="st10" d="M90.21,185.56c-0.48,0.48-0.48,1.25,0,1.72c0.48,0.48,1.25,0.48,1.72,0s0.48-1.25,0-1.72
			S90.69,185.08,90.21,185.56z"/>
		<path class="st6" d="M90.38,185.73c-0.38,0.38-0.38,1,0,1.38c0.38,0.38,1,0.38,1.38,0c0.38-0.38,0.38-1,0-1.38
			C91.38,185.35,90.76,185.35,90.38,185.73z"/>
		<path class="st10" d="M91.93,183.84c-0.48,0.48-0.48,1.25,0,1.72c0.48,0.48,1.25,0.48,1.72,0s0.48-1.25,0-1.72
			C93.18,183.36,92.41,183.36,91.93,183.84z"/>
		<path class="st6" d="M92.11,184.01c-0.38,0.38-0.38,1,0,1.38c0.38,0.38,1,0.38,1.38,0c0.38-0.38,0.38-1,0-1.38
			S92.49,183.63,92.11,184.01z"/>
	</g>
	<g>
		
			<rect x="533.57" y="257.8" transform="matrix(0.7071 -0.7071 0.7071 0.7071 -26.156 464.6186)" class="st3" width="28.39" height="12.17"/>
		<line class="st4" x1="543.36" y1="259.48" x2="551.31" y2="267.42"/>
		<line class="st5" x1="543.36" y1="259.48" x2="551.31" y2="267.42"/>
		<polygon class="st6" points="542.25,260.6 544.48,258.36 543.45,257.67 541.56,259.57 		"/>
		<line class="st5" x1="543.36" y1="259.48" x2="542.5" y2="258.62"/>
		
			<rect x="546.02" y="257.85" transform="matrix(0.7071 -0.7071 0.7071 0.7071 -22.5472 463.6968)" class="st8" width="4.87" height="2.43"/>
		
			<rect x="548.09" y="259.91" transform="matrix(0.7071 -0.7071 0.7071 0.7071 -23.4047 465.755)" class="st8" width="4.87" height="2.43"/>
		
			<rect x="550.15" y="261.98" transform="matrix(0.7071 -0.7071 0.7071 0.7071 -24.2594 467.8208)" class="st8" width="4.87" height="2.43"/>
	</g>
	<g>
		
			<rect x="14.32" y="249.49" transform="matrix(0.7071 -0.7071 0.7071 0.7071 -180.4738 91.6594)" class="st3" width="12.17" height="28.39"/>
		<line class="st4" x1="24.81" y1="259.28" x2="16.86" y2="267.22"/>
		<line class="st5" x1="24.81" y1="259.28" x2="16.86" y2="267.22"/>
		<polygon class="st6" points="23.69,258.16 25.93,260.4 26.61,259.36 24.72,257.47 		"/>
		<line class="st5" x1="24.81" y1="259.28" x2="25.67" y2="258.42"/>
		
			<rect x="24.01" y="261.94" transform="matrix(0.7071 -0.7071 0.7071 0.7071 -179.5502 95.2682)" class="st8" width="2.43" height="4.87"/>
		
			<rect x="21.94" y="264" transform="matrix(0.7071 -0.7071 0.7071 0.7071 -181.6129 94.4108)" class="st8" width="2.43" height="4.87"/>
		
			<rect x="19.88" y="266.06" transform="matrix(0.7071 -0.7071 0.7071 0.7071 -183.6777 93.5561)" class="st8" width="2.43" height="4.87"/>
	</g>
	<g>
		<circle class="st14" cx="260.61" cy="164.11" r="8.52"/>
		<line class="st15" x1="262.09" y1="155.72" x2="259.3" y2="171.56"/>
		<line class="st16" x1="259" y1="157.9" x2="264.24" y2="158.82"/>
		<line class="st17" x1="263.72" y1="152.95" x2="263.53" y2="152.68"/>
		<line class="st17" x1="261.51" y1="152.56" x2="261.77" y2="152.38"/>
		<line class="st18" x1="262.63" y1="152.64" x2="261.71" y2="157.88"/>
	</g>
	<g>
		<circle class="st19" cx="107.25" cy="288.15" r="8.52"/>
		<line class="st20" x1="112.37" y1="281.34" x2="102.69" y2="294.19"/>
		<line class="st21" x1="108.63" y1="281.88" x2="112.88" y2="285.09"/>
		<line class="st22" x1="115.08" y1="279.62" x2="115.03" y2="279.29"/>
		<line class="st22" x1="113.29" y1="278.27" x2="113.61" y2="278.22"/>
		<line class="st23" x1="114.25" y1="278.85" x2="111.05" y2="283.1"/>
	</g>
	<g>
		<circle class="st14" cx="83.85" cy="167.95" r="8.52"/>
		<line class="st15" x1="91.15" y1="172.34" x2="77.36" y2="164.05"/>
		<line class="st16" x1="90.22" y1="168.67" x2="87.48" y2="173.24"/>
		<line class="st17" x1="93.15" y1="174.85" x2="93.46" y2="174.77"/>
		<line class="st17" x1="94.3" y1="172.93" x2="94.38" y2="173.24"/>
		<line class="st18" x1="93.83" y1="173.95" x2="89.26" y2="171.21"/>
	</g>
	<g>
		<circle class="st19" cx="470.17" cy="102.9" r="8.52"/>
		<line class="st20" x1="464.58" y1="96.47" x2="475.14" y2="108.61"/>
		<line class="st21" x1="464.33" y1="100.24" x2="468.35" y2="96.75"/>
		<line class="st22" x1="463.46" y1="93.47" x2="463.13" y2="93.44"/>
		<line class="st22" x1="461.76" y1="94.94" x2="461.79" y2="94.61"/>
		<line class="st23" x1="462.53" y1="94.11" x2="466.03" y2="98.13"/>
	</g>
	<g>
		<circle class="st19" cx="531.42" cy="25.66" r="8.52"/>
		<line class="st20" x1="535.93" y1="32.88" x2="527.41" y2="19.24"/>
		<line class="st21" x1="536.77" y1="29.2" x2="532.25" y2="32.02"/>
		<line class="st22" x1="536.57" y1="36.03" x2="536.89" y2="36.1"/>
		<line class="st22" x1="538.48" y1="34.84" x2="538.4" y2="35.16"/>
		<line class="st23" x1="537.59" y1="35.53" x2="534.77" y2="31.02"/>
	</g>
	<g>
		<circle class="st14" cx="320.72" cy="20.56" r="8.52"/>
		<line class="st15" x1="329.24" y1="20.56" x2="313.16" y2="20.56"/>
		<line class="st16" x1="326.56" y1="17.9" x2="326.56" y2="23.23"/>
		<line class="st17" x1="332.25" y1="21.69" x2="332.48" y2="21.46"/>
		<line class="st17" x1="332.25" y1="19.44" x2="332.48" y2="19.67"/>
		<line class="st18" x1="332.37" y1="20.56" x2="327.04" y2="20.56"/>
	</g>
</g>
</svg>
