<?xml version="1.0" encoding="utf-8"?>
<!-- Generator: Adobe Adobe Illustrator 24.2.0, SVG Export Plug-In . SVG Version: 6.00 Build 0)  -->
<svg version="1.1" id="Layer_1" xmlns="http://www.w3.org/2000/svg" xmlns:xlink="http://www.w3.org/1999/xlink" x="0px" y="0px"
	 width="440px" height="63px" viewBox="0 0 440 63" style="enable-background:new 0 0 440 63;" xml:space="preserve">
<style type="text/css">
	.st0{fill:#FFFFFF;}
	.st1{fill:#00B1AC;}
	.st2{fill:none;}
	.st3{fill:#1D1D1B;}
	.st4{fill:#7FB4D9;}
	.st5{fill:#0069B4;}
	.st6{fill:#0669B2;}
	.st7{fill:#F7A600;}
	.st8{fill:#FDD491;}
</style>
<g>
	<path class="st0" d="M90.76,47.72h-0.89v-0.06h0.89c0.31,0,0.46-0.14,0.46-0.44c0-0.29-0.15-0.44-0.46-0.44h-0.89v-0.06h0.89
		c0.35,0,0.51,0.16,0.51,0.5C91.27,47.56,91.1,47.72,90.76,47.72"/>
	<path class="st0" d="M91.25,46.27h-1.38v-0.07l1.07-0.71l0.13-0.09c0.01-0.01,0.02-0.02,0.01-0.04s-0.02-0.03-0.03-0.03l-0.15,0
		l-1.03,0v-0.05h1.38v0.04l-1.1,0.74l-0.13,0.08C90,46.16,90,46.18,90,46.19c0,0.01,0.02,0.03,0.03,0.03l0.16,0h1.05V46.27z"/>
	<rect x="89.87" y="44.74" class="st0" width="1.38" height="0.06"/>
	<path class="st0" d="M89.87,44.35v-0.07l1.15-0.4l0.15-0.05c0.01-0.01,0.02-0.02,0.02-0.03s-0.01-0.03-0.02-0.03l-0.15-0.05
		l-1.15-0.4v-0.06l1.38,0.5v0.1L89.87,44.35z"/>
	<path class="st0" d="M91.24,42.87h-1.38v-0.79l0.05,0v0.7c0,0.02,0.01,0.03,0.03,0.03h0.51c0.02,0,0.03-0.02,0.03-0.03v-0.6h0.04
		v0.6c0,0.02,0.01,0.03,0.03,0.03h0.58c0.02,0,0.03-0.02,0.03-0.03v-0.73l0.05,0V42.87z"/>
	<path class="st0" d="M91.24,41.67h-1.38v-0.44c0-0.27,0.11-0.39,0.36-0.39c0.21,0,0.33,0.09,0.35,0.28c0,0.01,0.01,0.02,0.02,0.03
		c0,0,0.01,0,0.01,0c0.01,0,0.01,0,0.02-0.01l0.62-0.37v0.08l-0.63,0.36c-0.01,0.01-0.02,0.02-0.02,0.03v0.33
		c0,0.02,0.01,0.03,0.03,0.03h0.61V41.67z M90.23,40.91c-0.22,0-0.32,0.1-0.32,0.32v0.34c0,0.02,0.01,0.03,0.03,0.03h0.58
		c0.02,0,0.03-0.01,0.03-0.03v-0.33C90.56,41.01,90.46,40.91,90.23,40.91"/>
	<path class="st0" d="M91.18,40.46l-0.05-0.01c0.06-0.11,0.09-0.23,0.09-0.36c0-0.24-0.12-0.38-0.33-0.38
		c-0.21,0-0.27,0.19-0.33,0.36c-0.07,0.19-0.13,0.38-0.36,0.38c-0.22,0-0.35-0.15-0.35-0.41c0-0.12,0.02-0.24,0.06-0.33l0.05,0.01
		c-0.04,0.11-0.06,0.21-0.06,0.32c0,0.27,0.15,0.36,0.29,0.36c0.19,0,0.26-0.18,0.31-0.35c0.07-0.2,0.13-0.39,0.38-0.39
		c0.25,0,0.39,0.15,0.39,0.44C91.27,40.22,91.24,40.34,91.18,40.46"/>
	<rect x="89.87" y="39.17" class="st0" width="1.38" height="0.06"/>
	<path class="st0" d="M89.93,38.83l-0.06,0v-0.96h0.06v0.42c0,0.02,0.01,0.03,0.03,0.03h1.28v0.06h-1.28
		c-0.02,0-0.03,0.01-0.03,0.03V38.83z"/>
	<path class="st0" d="M89.87,37.64v-0.07l0.66-0.35l0.14-0.07c0.01-0.01,0.02-0.02,0.02-0.03c0-0.01-0.01-0.03-0.02-0.03l-0.14-0.07
		l-0.66-0.35V36.6l0.89,0.48l0.49,0v0.07h-0.47L89.87,37.64z"/>
	<path class="st0" d="M90.56,35.72c-0.52,0-0.71-0.15-0.71-0.54s0.19-0.54,0.71-0.54c0.52,0,0.71,0.15,0.71,0.54
		S91.08,35.72,90.56,35.72 M90.56,34.7c-0.48,0-0.66,0.12-0.66,0.48c0,0.35,0.17,0.48,0.66,0.48c0.49,0,0.66-0.13,0.66-0.48
		C91.21,34.83,91.04,34.7,90.56,34.7"/>
	<path class="st0" d="M91.25,34.22h-1.38v-0.78l0.06,0v0.69c0,0.02,0.01,0.03,0.03,0.03h0.52c0.02,0,0.03-0.01,0.03-0.03v-0.58h0.05
		v0.58c0,0.02,0.01,0.03,0.03,0.03h0.65V34.22z"/>
	<path class="st0" d="M91.25,32.68l-1.38-0.52v-0.1l1.38-0.52v0.07l-0.36,0.13c-0.01,0-0.02,0.02-0.02,0.03v0.69
		c0,0.01,0.01,0.03,0.02,0.03l0.36,0.13V32.68z M90.78,31.77C90.78,31.77,90.78,31.77,90.78,31.77l-0.72,0.25l-0.15,0.05
		c-0.01,0.01-0.02,0.02-0.02,0.03s0.01,0.03,0.02,0.03l0.15,0.05l0.71,0.26c0,0,0.01,0,0.01,0c0.01,0,0.01,0,0.02-0.01
		c0.01-0.01,0.01-0.01,0.01-0.03V31.8c0-0.01-0.01-0.02-0.01-0.03C90.8,31.77,90.79,31.77,90.78,31.77"/>
	<path class="st0" d="M91.24,31.16h-1.38v-0.43c0-0.31,0.11-0.44,0.4-0.44c0.28,0,0.4,0.13,0.4,0.44v0.33
		c0,0.02,0.01,0.03,0.03,0.03h0.55V31.16z M90.26,30.36c-0.24,0-0.35,0.12-0.35,0.37v0.33c0,0.02,0.02,0.03,0.03,0.03h0.64
		c0.02,0,0.03-0.01,0.03-0.03v-0.33C90.62,30.47,90.51,30.36,90.26,30.36"/>
	<path class="st0" d="M91.24,29.92h-1.38v-0.43c0-0.31,0.11-0.44,0.4-0.44c0.28,0,0.4,0.13,0.4,0.44v0.33
		c0,0.02,0.01,0.03,0.03,0.03h0.55V29.92z M90.26,29.12c-0.24,0-0.35,0.12-0.35,0.37v0.33c0,0.02,0.02,0.03,0.03,0.03h0.64
		c0.02,0,0.03-0.01,0.03-0.03v-0.33C90.62,29.23,90.51,29.12,90.26,29.12"/>
	<path class="st0" d="M91.25,28.67h-1.38v-0.06h1.29c0.02,0,0.03-0.01,0.03-0.03V27.9l0.06,0V28.67z"/>
	<rect x="89.87" y="27.46" class="st0" width="1.38" height="0.06"/>
	<path class="st0" d="M91.25,26.97h-1.38v-0.79l0.05,0v0.7c0,0.02,0.01,0.03,0.03,0.03h0.51c0.02,0,0.03-0.02,0.03-0.03v-0.6h0.04
		v0.6c0,0.02,0.01,0.03,0.03,0.03h0.58c0.02,0,0.03-0.02,0.03-0.03v-0.73l0.05,0V26.97z"/>
	<path class="st0" d="M91.25,25.76h-1.38v-0.44c0-0.41,0.19-0.57,0.68-0.57c0.49,0,0.7,0.17,0.7,0.57V25.76z M90.55,24.82
		c-0.45,0-0.62,0.14-0.62,0.51v0.34c0,0.02,0.01,0.03,0.03,0.03h1.2c0.02,0,0.03-0.01,0.03-0.03v-0.34
		C91.19,24.96,91.01,24.82,90.55,24.82"/>
	<path class="st0" d="M91.18,23.83l-0.05-0.01c0.06-0.11,0.09-0.23,0.09-0.36c0-0.24-0.12-0.38-0.33-0.38
		c-0.21,0-0.27,0.18-0.33,0.36c-0.07,0.19-0.13,0.38-0.36,0.38c-0.22,0-0.35-0.15-0.35-0.41c0-0.12,0.02-0.24,0.06-0.33l0.05,0.01
		c-0.04,0.11-0.06,0.21-0.06,0.32c0,0.34,0.22,0.37,0.29,0.37c0.19,0,0.25-0.18,0.31-0.35c0.07-0.2,0.13-0.39,0.38-0.39
		c0.25,0,0.39,0.16,0.39,0.44C91.27,23.6,91.24,23.72,91.18,23.83"/>
	<path class="st0" d="M90.54,22.7c-0.49,0-0.7-0.17-0.7-0.57c0-0.11,0.03-0.23,0.06-0.3l0.05,0.01c-0.03,0.09-0.05,0.19-0.05,0.29
		c0,0.36,0.18,0.51,0.64,0.51c0.48,0,0.67-0.15,0.67-0.52c0-0.1-0.02-0.2-0.06-0.29l0.04-0.01c0.04,0.08,0.07,0.19,0.07,0.31
		C91.27,22.53,91.05,22.7,90.54,22.7"/>
	<rect x="89.87" y="21.36" class="st0" width="1.38" height="0.06"/>
	<path class="st0" d="M91.25,20.87h-1.38v-0.78l0.05,0v0.7c0,0.02,0.01,0.03,0.03,0.03h0.51c0.02,0,0.03-0.02,0.03-0.03v-0.6h0.04
		v0.6c0,0.02,0.01,0.03,0.03,0.03h0.58c0.02,0,0.03-0.02,0.03-0.03v-0.73l0.05,0V20.87z"/>
	<path class="st0" d="M91.25,19.68h-1.38v-0.08l1.07-0.71l0.13-0.08c0.01-0.01,0.02-0.03,0.01-0.04c0-0.01-0.02-0.02-0.03-0.02h0
		l-0.15,0l-1.03,0v-0.05h1.38v0.04l-1.1,0.74l-0.13,0.08C90,19.58,90,19.6,90,19.61c0,0.01,0.02,0.02,0.03,0.02l0.15,0h1.06V19.68z"
		/>
	<path class="st0" d="M90.54,18.3c-0.49,0-0.7-0.17-0.7-0.58c0-0.11,0.03-0.23,0.06-0.3l0.05,0.01c-0.03,0.09-0.05,0.19-0.05,0.29
		c0,0.37,0.18,0.51,0.64,0.51c0.48,0,0.67-0.15,0.67-0.52c0-0.1-0.02-0.2-0.06-0.29l0.04-0.01c0.04,0.08,0.07,0.19,0.07,0.31
		C91.27,18.13,91.05,18.3,90.54,18.3"/>
	<path class="st0" d="M91.25,17.04h-1.38v-0.78l0.05,0v0.7c0,0.02,0.01,0.03,0.03,0.03h0.51c0.02,0,0.03-0.02,0.03-0.03v-0.6h0.04
		v0.6c0,0.02,0.01,0.03,0.03,0.03h0.58c0.02,0,0.03-0.02,0.03-0.03v-0.73l0.05,0V17.04z"/>
	<path class="st0" d="M91.18,15.89l-0.05-0.01c0.06-0.11,0.09-0.23,0.09-0.36c0-0.24-0.12-0.38-0.33-0.38
		c-0.21,0-0.27,0.18-0.33,0.36c-0.07,0.19-0.13,0.38-0.36,0.38c-0.22,0-0.35-0.15-0.35-0.41c0-0.12,0.02-0.24,0.06-0.33l0.05,0.01
		c-0.04,0.11-0.06,0.21-0.06,0.32c0,0.27,0.15,0.36,0.29,0.36c0.19,0,0.25-0.18,0.31-0.35c0.07-0.2,0.13-0.39,0.38-0.39
		c0.25,0,0.39,0.15,0.39,0.43C91.27,15.65,91.24,15.78,91.18,15.89"/>
	<path class="st0" d="M89.06,47.72h-1.38v-0.86l0.18,0v0.63c0,0.02,0.01,0.03,0.03,0.03h0.37c0.02,0,0.03-0.02,0.03-0.03v-0.52
		l0.17,0v0.52c0,0.02,0.01,0.03,0.03,0.03h0.56V47.72z"/>
	<path class="st0" d="M89.06,46.56h-1.38v-0.2h0.55c0.02,0,0.03-0.01,0.03-0.03v-0.59c0-0.02-0.01-0.03-0.03-0.03h-0.55v-0.2h1.38
		v0.2h-0.59c-0.02,0-0.03,0.01-0.03,0.03v0.59c0,0.02,0.01,0.03,0.03,0.03h0.59V46.56z"/>
	<path class="st0" d="M89.06,44.7l-1.38-0.49v-0.27l1.38-0.49v0.23l-0.29,0.09c-0.01,0.01-0.02,0.02-0.02,0.03v0.58
		c0,0.01,0.01,0.03,0.02,0.03l0.29,0.09V44.7z M88.56,43.83C88.56,43.83,88.56,43.83,88.56,43.83l-0.57,0.17l-0.15,0.04
		c-0.01,0-0.02,0.02-0.02,0.03c0,0.01,0.01,0.03,0.02,0.03l0.15,0.04l0.56,0.17c0,0,0.01,0,0.01,0c0.01,0,0.01,0,0.02-0.01
		c0.01-0.01,0.01-0.02,0.01-0.03v-0.44c0-0.01-0.01-0.02-0.01-0.03C88.58,43.83,88.57,43.83,88.56,43.83"/>
	<path class="st0" d="M89.06,43.27l-1.38-0.49v-0.27l1.38-0.49v0.23l-0.29,0.09c-0.01,0.01-0.02,0.02-0.02,0.03v0.58
		c0,0.01,0.01,0.03,0.02,0.03l0.29,0.09V43.27z M88.56,42.4C88.56,42.4,88.56,42.4,88.56,42.4l-0.57,0.17l-0.15,0.04
		c-0.01,0-0.02,0.02-0.02,0.03c0,0.01,0.01,0.03,0.02,0.03l0.15,0.04l0.56,0.17c0,0,0.01,0,0.01,0c0.01,0,0.01,0,0.02-0.01
		c0.01-0.01,0.01-0.02,0.01-0.03v-0.44c0-0.01-0.01-0.02-0.01-0.03C88.58,42.4,88.57,42.4,88.56,42.4"/>
	<path class="st0" d="M88.36,41.83c-0.48,0-0.7-0.2-0.7-0.62c0-0.1,0.02-0.22,0.05-0.3l0.17,0.02c-0.03,0.08-0.04,0.18-0.04,0.26
		c0,0.31,0.14,0.42,0.52,0.42c0.4,0,0.55-0.12,0.55-0.43c0-0.09-0.02-0.18-0.05-0.26l0.16-0.02c0.04,0.1,0.07,0.22,0.07,0.32
		C89.09,41.65,88.87,41.83,88.36,41.83"/>
	<path class="st0" d="M89.06,40.59h-1.38v-0.2h0.55c0.02,0,0.03-0.02,0.03-0.03v-0.59c0-0.02-0.01-0.03-0.03-0.03h-0.55v-0.2h1.38
		v0.2h-0.59c-0.02,0-0.03,0.01-0.03,0.03v0.59c0,0.02,0.01,0.03,0.03,0.03h0.59V40.59z"/>
	<path class="st0" d="M89.06,39.15h-1.38v-0.86l0.18,0v0.63c0,0.02,0.01,0.03,0.03,0.03h0.35c0.02,0,0.03-0.01,0.03-0.03v-0.53h0.15
		v0.53c0,0.02,0.01,0.03,0.03,0.03h0.4c0.02,0,0.03-0.01,0.03-0.03v-0.66l0.17,0V39.15z"/>
	<path class="st0" d="M89.06,37.94h-1.38v-0.18l0.83-0.56l0.13-0.09c0.01-0.01,0.02-0.02,0.01-0.04c0-0.01-0.02-0.03-0.03-0.03h0
		l-0.15,0h-0.78v-0.17h1.38v0.14l-0.87,0.6l-0.13,0.09c-0.01,0.01-0.02,0.03-0.01,0.04c0.01,0.01,0.02,0.03,0.03,0.03l0.15,0h0.82
		V37.94z"/>
	<rect x="93.53" y="36.85" width="3.63" height="10.9"/>
	<rect x="93.53" y="25.95" class="st0" width="3.63" height="10.9"/>
	<rect x="93.53" y="15.05" class="st1" width="3.63" height="10.9"/>
	<path d="M90.76,46.69c0.39,0,0.55,0.2,0.55,0.53c0,0.34-0.16,0.53-0.55,0.53h-0.92v-0.13h0.92c0.3,0,0.43-0.13,0.43-0.41
		c0-0.27-0.13-0.4-0.43-0.4h-0.92v-0.13H90.76z"/>
	<polygon points="91.28,45.35 90.16,46.1 90.03,46.18 90.03,46.18 90.19,46.18 91.28,46.18 91.28,46.3 89.84,46.3 89.84,46.17 
		90.92,45.45 91.05,45.37 91.05,45.36 90.9,45.37 89.84,45.37 89.84,45.26 91.28,45.26 	"/>
	<rect x="89.84" y="44.71" width="1.44" height="0.13"/>
	<polygon points="89.84,43.2 91.28,43.73 91.28,43.87 89.84,44.4 89.84,44.26 91.01,43.85 91.16,43.8 91.16,43.79 91.01,43.75 
		89.84,43.33 	"/>
	<polygon points="91.16,42.02 91.28,42.02 91.28,42.91 89.84,42.91 89.84,42.06 89.96,42.05 89.96,42.78 90.47,42.78 90.47,42.15 
		90.58,42.15 90.58,42.78 91.16,42.78 	"/>
	<path d="M90.61,41.12l0.67-0.4v0.15l-0.65,0.37v0.33h0.65v0.13h-1.44v-0.47c0-0.29,0.13-0.42,0.39-0.42
		C90.46,40.81,90.58,40.92,90.61,41.12 M89.95,41.23v0.34h0.58v-0.33c0-0.21-0.08-0.3-0.29-0.3C90.03,40.94,89.95,41.03,89.95,41.23
		"/>
	<path d="M91.3,40.08c0,0.17-0.04,0.3-0.11,0.41l-0.12-0.02c0.07-0.11,0.11-0.23,0.11-0.39c0-0.23-0.11-0.35-0.3-0.35
		c-0.39,0-0.22,0.74-0.69,0.74c-0.22,0-0.38-0.14-0.38-0.45c0-0.14,0.03-0.27,0.08-0.37L90,39.68c-0.05,0.11-0.07,0.22-0.07,0.34
		c0,0.24,0.12,0.33,0.26,0.33c0.37,0,0.19-0.74,0.69-0.74C91.14,39.61,91.3,39.78,91.3,40.08"/>
	<rect x="89.84" y="39.14" width="1.44" height="0.13"/>
	<polygon points="89.96,38.28 91.28,38.28 91.28,38.41 89.96,38.41 89.96,38.86 89.84,38.86 89.84,37.83 89.96,37.83 	"/>
	<polygon points="89.84,37.55 90.51,37.19 90.65,37.12 90.65,37.12 90.51,37.05 89.84,36.69 89.84,36.55 90.77,37.06 91.28,37.06 
		91.28,37.18 90.77,37.18 89.84,37.7 	"/>
	<path d="M91.3,35.18c0,0.42-0.21,0.58-0.75,0.58c-0.54,0-0.74-0.16-0.74-0.58c0-0.42,0.21-0.58,0.74-0.58
		C91.09,34.61,91.3,34.76,91.3,35.18 M89.93,35.18c0,0.32,0.14,0.44,0.62,0.44c0.48,0,0.62-0.13,0.62-0.45
		c0-0.32-0.14-0.44-0.62-0.44C90.07,34.74,89.93,34.86,89.93,35.18"/>
	<polygon points="89.96,34.13 90.48,34.13 90.48,33.51 90.6,33.51 90.6,34.13 91.28,34.13 91.28,34.25 89.84,34.25 89.84,33.4 
		89.96,33.4 	"/>
	<path d="M90.9,31.76v0.69l0.38,0.14v0.14l-1.44-0.55v-0.15l1.44-0.55v0.14L90.9,31.76z M90.08,32.16l0.71,0.26V31.8l-0.71,0.25
		l-0.15,0.05v0.01L90.08,32.16z"/>
	<path d="M90.7,30.73v0.33h0.58v0.13h-1.44v-0.46c0-0.33,0.13-0.47,0.43-0.47C90.56,30.26,90.7,30.4,90.7,30.73 M89.95,30.73v0.33
		h0.64v-0.33c0-0.22-0.08-0.34-0.32-0.34C90.03,30.39,89.95,30.5,89.95,30.73"/>
	<path d="M90.7,29.49v0.33h0.58v0.13h-1.44v-0.46c0-0.33,0.13-0.47,0.43-0.47C90.56,29.02,90.7,29.16,90.7,29.49 M89.95,29.49v0.33
		h0.64v-0.33c0-0.22-0.08-0.34-0.32-0.34C90.03,29.15,89.95,29.26,89.95,29.49"/>
	<polygon points="91.15,27.86 91.28,27.87 91.28,28.7 89.84,28.7 89.84,28.58 91.15,28.58 	"/>
	<rect x="89.84" y="27.43" width="1.44" height="0.13"/>
	<polygon points="91.16,26.11 91.28,26.12 91.28,27 89.84,27 89.84,26.15 89.96,26.15 89.96,26.88 90.47,26.88 90.47,26.24 
		90.58,26.24 90.58,26.88 91.16,26.88 	"/>
	<path d="M91.28,25.32v0.47h-1.44v-0.47c0-0.42,0.2-0.61,0.71-0.61C91.08,24.72,91.28,24.91,91.28,25.32 M89.96,25.33v0.34h1.2
		v-0.34c0-0.32-0.13-0.47-0.61-0.47C90.1,24.85,89.96,24.99,89.96,25.33"/>
	<path d="M91.3,23.46c0,0.17-0.04,0.3-0.11,0.41l-0.12-0.02c0.07-0.11,0.11-0.23,0.11-0.39c0-0.23-0.11-0.35-0.3-0.35
		c-0.39,0-0.22,0.74-0.69,0.74c-0.22,0-0.38-0.14-0.38-0.45c0-0.14,0.03-0.27,0.08-0.37L90,23.06c-0.05,0.11-0.07,0.22-0.07,0.34
		c0,0.24,0.12,0.33,0.26,0.33c0.37,0,0.19-0.74,0.69-0.74C91.14,22.99,91.3,23.15,91.3,23.46"/>
	<path d="M90,21.81c-0.04,0.08-0.07,0.19-0.07,0.31c0,0.33,0.15,0.48,0.61,0.48c0.49,0,0.64-0.16,0.64-0.49
		c0-0.12-0.03-0.22-0.08-0.31l0.11-0.02c0.05,0.09,0.09,0.22,0.09,0.35c0,0.42-0.23,0.6-0.76,0.6c-0.51,0-0.73-0.19-0.73-0.61
		c0-0.12,0.03-0.26,0.07-0.34L90,21.81z"/>
	<rect x="89.84" y="21.33" width="1.44" height="0.13"/>
	<polygon points="91.16,20.01 91.28,20.02 91.28,20.9 89.84,20.9 89.84,20.05 89.96,20.04 89.96,20.77 90.47,20.77 90.47,20.14 
		90.58,20.14 90.58,20.77 91.16,20.77 	"/>
	<polygon points="91.28,18.77 90.16,19.52 90.03,19.6 90.03,19.6 90.19,19.6 91.28,19.6 91.28,19.72 89.84,19.72 89.84,19.59 
		90.92,18.87 91.05,18.79 91.05,18.78 90.9,18.79 89.84,18.79 89.84,18.68 91.28,18.68 	"/>
	<path d="M90,17.41c-0.04,0.08-0.07,0.19-0.07,0.31c0,0.33,0.15,0.48,0.61,0.48c0.49,0,0.64-0.16,0.64-0.49
		c0-0.12-0.03-0.22-0.08-0.31l0.11-0.02c0.05,0.09,0.09,0.22,0.09,0.35c0,0.42-0.23,0.6-0.76,0.6c-0.51,0-0.73-0.19-0.73-0.61
		c0-0.12,0.03-0.26,0.07-0.33L90,17.41z"/>
	<polygon points="91.16,16.19 91.28,16.19 91.28,17.08 89.84,17.08 89.84,16.23 89.96,16.22 89.96,16.95 90.47,16.95 90.47,16.32 
		90.58,16.32 90.58,16.95 91.16,16.95 	"/>
	<path d="M91.3,15.51c0,0.17-0.04,0.3-0.11,0.41l-0.12-0.02c0.07-0.11,0.11-0.24,0.11-0.39c0-0.23-0.11-0.35-0.3-0.35
		c-0.39,0-0.22,0.74-0.69,0.74c-0.22,0-0.38-0.14-0.38-0.45c0-0.14,0.03-0.27,0.08-0.37L90,15.11c-0.05,0.11-0.07,0.22-0.07,0.34
		c0,0.24,0.12,0.33,0.26,0.33c0.37,0,0.19-0.74,0.69-0.74C91.14,15.04,91.3,15.21,91.3,15.51"/>
	<polygon points="87.9,47.49 88.27,47.49 88.27,46.94 88.5,46.94 88.5,47.49 89.1,47.49 89.1,47.75 87.66,47.75 87.66,46.83 
		87.9,46.83 	"/>
	<polygon points="89.1,45.74 88.48,45.74 88.48,46.33 89.1,46.33 89.1,46.59 87.65,46.59 87.65,46.33 88.23,46.33 88.23,45.74 
		87.65,45.74 87.65,45.47 89.1,45.47 	"/>
	<path d="M88.79,43.79v0.58l0.31,0.1v0.28l-1.44-0.51v-0.32l1.44-0.52v0.3L88.79,43.79z M88,44.13l0.56,0.17v-0.44L88,44.04
		l-0.15,0.04v0.01L88,44.13z"/>
	<path d="M88.79,42.36v0.58l0.31,0.1v0.28l-1.44-0.51v-0.32l1.44-0.52v0.3L88.79,42.36z M88,42.69l0.56,0.17v-0.44L88,42.6
		l-0.15,0.04v0.01L88,42.69z"/>
	<path d="M87.93,40.91c-0.03,0.08-0.05,0.18-0.05,0.29c0,0.28,0.12,0.39,0.49,0.39c0.4,0,0.52-0.11,0.52-0.39
		c0-0.11-0.02-0.21-0.06-0.29l0.22-0.03c0.05,0.09,0.08,0.23,0.08,0.35c0,0.43-0.24,0.64-0.76,0.64c-0.49,0-0.74-0.2-0.74-0.65
		c0-0.12,0.03-0.25,0.06-0.33L87.93,40.91z"/>
	<polygon points="89.1,39.78 88.48,39.78 88.48,40.36 89.1,40.36 89.1,40.63 87.65,40.63 87.65,40.36 88.23,40.36 88.23,39.78 
		87.65,39.78 87.65,39.51 89.1,39.51 	"/>
	<polygon points="88.86,38.23 89.1,38.23 89.1,39.18 87.65,39.18 87.65,38.26 87.9,38.26 87.9,38.92 88.24,38.92 88.24,38.36 
		88.46,38.36 88.46,38.92 88.86,38.92 	"/>
	<polygon points="89.1,37.04 88.22,37.65 88.09,37.74 88.09,37.74 88.24,37.74 89.1,37.74 89.1,37.98 87.65,37.98 87.65,37.75 
		88.5,37.17 88.63,37.08 88.62,37.08 88.47,37.08 87.65,37.08 87.65,36.85 89.1,36.85 	"/>
	<rect x="87.63" y="15.05" class="st2" width="9.54" height="32.71"/>
	<path class="st3" d="M3.22,15.34l4.37,10.77l0.59,1.52h0.06l0.57-1.52l4.37-10.77h2.34v15.24h-1.89V20.5l0.04-1.65l-0.06-0.02
		l-0.59,1.54l-4.13,10.2H7.43L3.32,20.46l-0.59-1.54l-0.04,0.02l0.02,1.65v10H0.87V15.34H3.22z M28.03,26.94h-6.71l-1.22,3.64h-2.24
		l5.61-15.24h2.48l5.63,15.24h-2.34L28.03,26.94z M24.18,18.44l-2.26,6.69h5.51l-2.22-6.69l-0.47-1.59h-0.06L24.18,18.44z
		 M37.48,30.86c-1.75,0-3.25-0.45-4.47-1.16l0.33-1.89c1.24,0.75,2.56,1.16,4.13,1.16c2.15,0,3.21-0.98,3.21-2.6
		c0-3.46-7.54-1.95-7.54-7.01c0-2.4,1.54-4.27,5.02-4.27c1.48,0,2.93,0.28,4.02,0.81l-0.28,1.81c-1.2-0.47-2.36-0.73-3.64-0.73
		c-2.3,0-3.11,1.06-3.11,2.26c0,3.31,7.54,1.77,7.54,6.99C42.68,29.1,40.84,30.86,37.48,30.86z M54.68,30.58l-4.9-7.03h-2.22v7.03
		h-2.07V15.34h2.07v6.44h2.26l4.67-6.44h2.48l-5.26,7.22l5.57,8.03H54.68z M64.77,30.86c-4.51,0-6.32-2.34-6.32-7.91
		s1.79-7.87,6.32-7.87c4.55,0,6.3,2.3,6.3,7.87C71.07,28.57,69.32,30.86,64.77,30.86z M64.77,17.02c-2.99,0-4.13,1.26-4.13,5.93
		c0,4.65,1.14,5.96,4.13,5.96s4.13-1.3,4.13-5.96C68.89,18.28,67.77,17.02,64.77,17.02z M81.34,23.77l3.98,6.81h-2.48l-3.43-6.42
		h-3.07v6.42h-2.07V15.34h5.16c3.33,0,4.9,1.4,4.9,4.35C84.32,22.02,83.27,23.44,81.34,23.77z M79.43,17.14h-3.09v5.37h3.01
		c1.95,0,2.83-0.73,2.83-2.74C82.17,17.86,81.34,17.14,79.43,17.14z"/>
	<rect x="-0.78" y="13.96" class="st2" width="99.21" height="34.89"/>
	<path class="st3" d="M1.54,34.08l1.55,3.82l0.19,0.49h0.02l0.18-0.49l1.55-3.82h0.5v4.91H5.16v-3.67l0.01-0.53l-0.02-0.01
		l-0.19,0.5l-1.51,3.71H3.12l-1.51-3.69l-0.19-0.5L1.41,34.8l0.01,0.53v3.65H1.03v-4.91H1.54z M8.27,39.07
		c-1.13,0-1.63-0.56-1.63-2.01c0-1.43,0.51-2,1.63-2c1.13,0,1.61,0.57,1.61,2C9.88,38.51,9.4,39.07,8.27,39.07z M8.27,38.72
		c0.86,0,1.2-0.46,1.2-1.66c0-1.2-0.33-1.65-1.2-1.65c-0.87,0-1.22,0.45-1.22,1.65C7.05,38.27,7.4,38.72,8.27,38.72z M12.46,39.06
		c-0.5,0-0.94-0.19-1.19-0.53l-0.02,0.01l-0.08,0.45h-0.26v-5.22l0.4-0.03v1.28l-0.01,0.52l0.01,0.01c0.27-0.33,0.71-0.5,1.19-0.5
		c0.9,0,1.48,0.5,1.48,2C13.99,38.52,13.43,39.06,12.46,39.06z M12.4,35.43c-0.47,0-0.87,0.2-1.09,0.54v2.19
		c0.17,0.29,0.55,0.56,1.11,0.56c0.69,0,1.17-0.35,1.17-1.66C13.58,35.76,13.14,35.43,12.4,35.43z M15.37,34.33
		c-0.2,0-0.31-0.07-0.31-0.27c0-0.18,0.11-0.27,0.31-0.27s0.31,0.1,0.31,0.27C15.67,34.25,15.56,34.33,15.37,34.33z M15.16,38.99
		v-3.84l0.4-0.03v3.88H15.16z M17.14,38.99v-5.21l0.39-0.03v5.24H17.14z M18.68,36.92c0-1.21,0.52-1.87,1.54-1.87
		c0.87,0,1.48,0.53,1.48,1.78c0,0.06-0.01,0.14-0.01,0.2h-2.6c0.02,1.24,0.43,1.66,1.36,1.66c0.41,0,0.74-0.1,1.07-0.27l0.05,0.35
		c-0.33,0.19-0.71,0.3-1.16,0.3C19.17,39.07,18.68,38.42,18.68,36.92z M21.33,36.75c-0.01-0.98-0.47-1.34-1.11-1.34
		c-0.76,0-1.1,0.45-1.14,1.34H21.33z M27.61,37.69h-2.36l-0.46,1.3h-0.46l1.87-4.91h0.51l1.87,4.91h-0.48L27.61,37.69z M26.26,34.9
		l-0.87,2.4h2.08l-0.86-2.4l-0.16-0.5h-0.02L26.26,34.9z M32.05,37.77c0,0.81-0.46,1.3-1.43,1.3c-0.96,0-1.43-0.49-1.43-1.3v-2.64
		h0.39v2.63c0,0.6,0.35,0.93,1.03,0.93s1.04-0.32,1.04-0.93v-2.63h0.39V37.77z M33.78,35.45v2.61c0,0.46,0.24,0.65,0.63,0.65
		c0.11,0,0.25-0.02,0.33-0.05l0.03,0.31c-0.1,0.05-0.29,0.08-0.46,0.08c-0.6,0-0.92-0.31-0.92-0.98v-2.62h-0.6v-0.32h0.61l0.08-1.01
		l0.31-0.04v1.05h1.01v0.32H33.78z M37,39.07c-1.13,0-1.63-0.56-1.63-2.01c0-1.43,0.51-2,1.63-2c1.13,0,1.61,0.57,1.61,2
		C38.61,38.51,38.13,39.07,37,39.07z M37,38.72c0.86,0,1.2-0.46,1.2-1.66c0-1.2-0.33-1.65-1.2-1.65c-0.87,0-1.22,0.45-1.22,1.65
		C35.78,38.27,36.13,38.72,37,38.72z M42.07,38.99v-2.61c0-0.66-0.37-0.94-1.02-0.94c-0.38,0-0.84,0.18-1.05,0.52v3.02H39.6v-3.86
		l0.28-0.03l0.07,0.46h0.02c0.26-0.32,0.71-0.51,1.17-0.51c0.82,0,1.32,0.43,1.32,1.32v2.61H42.07z M45.01,39.07
		c-1.13,0-1.63-0.56-1.63-2.01c0-1.43,0.51-2,1.63-2c1.13,0,1.61,0.57,1.61,2C46.62,38.51,46.14,39.07,45.01,39.07z M45.01,38.72
		c0.86,0,1.2-0.46,1.2-1.66c0-1.2-0.33-1.65-1.2-1.65c-0.87,0-1.22,0.45-1.22,1.65C43.79,38.27,44.14,38.72,45.01,38.72z
		 M52.03,38.99v-2.62c0-0.63-0.36-0.92-0.94-0.92c-0.46,0-0.88,0.28-0.88,0.83v2.71h-0.39v-2.71c0-0.6-0.4-0.83-0.88-0.83
		c-0.37,0-0.76,0.2-0.94,0.52v3.02h-0.39v-3.86l0.28-0.03l0.08,0.47h0.02c0.22-0.31,0.6-0.5,1.02-0.5c0.56,0,0.91,0.22,1.07,0.64
		h0.02c0.18-0.43,0.58-0.65,1.09-0.65c0.73,0,1.24,0.41,1.24,1.29v2.63H52.03z M53.34,36.92c0-1.21,0.52-1.87,1.54-1.87
		c0.87,0,1.48,0.53,1.48,1.78c0,0.06-0.01,0.14-0.01,0.2h-2.6c0.02,1.24,0.43,1.66,1.36,1.66c0.41,0,0.74-0.1,1.07-0.27l0.05,0.35
		c-0.33,0.19-0.71,0.3-1.16,0.3C53.83,39.07,53.34,38.42,53.34,36.92z M55.99,36.75c-0.01-0.98-0.47-1.34-1.11-1.34
		c-0.76,0-1.1,0.45-1.14,1.34H55.99z M60.58,39.08c-0.56,0-1.02-0.15-1.39-0.38l0.08-0.41c0.38,0.25,0.8,0.38,1.32,0.38
		c0.78,0,1.18-0.38,1.18-1.01c0-1.32-2.52-0.74-2.52-2.36c0-0.74,0.47-1.3,1.53-1.3c0.48,0,0.91,0.1,1.26,0.26l-0.08,0.39
		c-0.37-0.16-0.73-0.25-1.16-0.25c-0.81,0-1.13,0.41-1.13,0.88c0,1.25,2.53,0.66,2.53,2.36C62.18,38.53,61.63,39.08,60.58,39.08z
		 M64.38,39.11l0.03-0.09l-1.72-3.9h0.48l1.24,3.02l0.2,0.49h0.02l0.16-0.5l1.03-3h0.44l-1.46,3.97C64.56,39.76,64.21,40,63.72,40
		c-0.2,0-0.41-0.05-0.56-0.12l0.05-0.32c0.15,0.09,0.31,0.12,0.45,0.12C63.97,39.67,64.19,39.54,64.38,39.11z M68.05,39.07
		c-0.46,0-0.89-0.12-1.18-0.35l0.07-0.36c0.28,0.24,0.71,0.37,1.11,0.37c0.65,0,0.93-0.33,0.93-0.78c0-1.03-2.08-0.59-2.08-1.87
		c0-0.63,0.45-1.01,1.28-1.01c0.37,0,0.71,0.07,1.01,0.22l-0.04,0.35c-0.32-0.14-0.66-0.22-0.98-0.22c-0.55,0-0.9,0.25-0.9,0.64
		c0,0.96,2.08,0.48,2.08,1.85C69.35,38.6,68.95,39.07,68.05,39.07z M70.86,35.45v2.61c0,0.46,0.24,0.65,0.63,0.65
		c0.11,0,0.25-0.02,0.33-0.05l0.03,0.31c-0.1,0.05-0.29,0.08-0.46,0.08c-0.6,0-0.92-0.31-0.92-0.98v-2.62h-0.6v-0.32h0.61l0.08-1.01
		l0.31-0.04v1.05h1.01v0.32H70.86z M72.45,36.92c0-1.21,0.52-1.87,1.54-1.87c0.87,0,1.48,0.53,1.48,1.78c0,0.06-0.01,0.14-0.01,0.2
		h-2.6c0.02,1.24,0.43,1.66,1.36,1.66c0.41,0,0.74-0.1,1.07-0.27l0.05,0.35c-0.33,0.19-0.71,0.3-1.16,0.3
		C72.94,39.07,72.45,38.42,72.45,36.92z M75.1,36.75c-0.01-0.98-0.47-1.34-1.11-1.34c-0.76,0-1.1,0.45-1.14,1.34H75.1z M80.86,38.99
		v-2.62c0-0.63-0.36-0.92-0.94-0.92c-0.46,0-0.88,0.28-0.88,0.83v2.71h-0.39v-2.71c0-0.6-0.4-0.83-0.88-0.83
		c-0.37,0-0.76,0.2-0.94,0.52v3.02h-0.39v-3.86l0.28-0.03l0.08,0.47h0.02c0.22-0.31,0.6-0.5,1.02-0.5c0.56,0,0.91,0.22,1.07,0.64
		h0.02c0.18-0.43,0.58-0.65,1.09-0.65c0.73,0,1.24,0.41,1.24,1.29v2.63H80.86z M82.18,36.92c0-1.21,0.52-1.87,1.54-1.87
		c0.87,0,1.48,0.53,1.48,1.78c0,0.06-0.01,0.14-0.01,0.2h-2.6c0.02,1.24,0.43,1.66,1.36,1.66c0.41,0,0.74-0.1,1.07-0.27l0.05,0.35
		c-0.33,0.19-0.71,0.3-1.16,0.3C82.67,39.07,82.18,38.42,82.18,36.92z M84.83,36.75c-0.01-0.98-0.47-1.34-1.11-1.34
		c-0.76,0-1.1,0.45-1.14,1.34H84.83z"/>
	<path class="st3" d="M17.47,45.72c0,0.81-0.46,1.3-1.43,1.3c-0.96,0-1.43-0.49-1.43-1.3v-2.64H15v2.63c0,0.6,0.35,0.93,1.03,0.93
		s1.04-0.32,1.04-0.93v-2.63h0.39V45.72z M21.1,46.94v-2.61c0-0.66-0.37-0.94-1.02-0.94c-0.38,0-0.84,0.18-1.05,0.52v3.02h-0.39
		v-3.86l0.28-0.03l0.07,0.46h0.02c0.26-0.32,0.71-0.51,1.17-0.51c0.82,0,1.32,0.43,1.32,1.32v2.61H21.1z M25.19,46.94l-0.07-0.45
		l-0.02-0.01c-0.24,0.35-0.65,0.54-1.2,0.54c-1.07,0-1.49-0.63-1.49-2.01c0-1.33,0.45-2,1.5-2c0.47,0,0.9,0.17,1.18,0.5l0.01-0.01
		l-0.01-0.52v-1.25l0.4-0.03v5.24H25.19z M25.09,43.92c-0.19-0.32-0.59-0.53-1.08-0.53c-0.86,0-1.19,0.47-1.19,1.63
		c0,1.19,0.3,1.66,1.18,1.66c0.65,0,0.96-0.32,1.09-0.56V43.92z M31.98,46.94l-1.78-2.38h-0.82v2.38h-0.43v-4.91h0.43v2.15h0.82
		l1.69-2.15h0.54l-1.83,2.32l1.94,2.59H31.98z M34.66,47.02c-1.13,0-1.63-0.56-1.63-2.01c0-1.43,0.51-2,1.63-2
		c1.13,0,1.61,0.57,1.61,2C36.27,46.46,35.8,47.02,34.66,47.02z M34.66,46.68c0.86,0,1.2-0.46,1.2-1.66c0-1.2-0.33-1.65-1.2-1.65
		c-0.87,0-1.22,0.45-1.22,1.65C33.45,46.22,33.79,46.68,34.66,46.68z M37.93,45.18c-0.26,0.06-0.4,0.19-0.4,0.35
		c0,0.15,0.12,0.27,0.44,0.31l0.89,0.09c0.95,0.1,1.23,0.39,1.23,0.9c0,0.68-0.39,1.11-1.56,1.11c-1.01,0-1.44-0.41-1.44-1.02
		c0-0.29,0.15-0.58,0.43-0.79c-0.2-0.09-0.35-0.26-0.35-0.52c0-0.24,0.18-0.45,0.5-0.56c-0.27-0.15-0.47-0.44-0.47-0.92
		c0-0.73,0.37-1.13,1.3-1.13c0.33,0,0.69,0.07,0.94,0.27L40.05,43l0.09,0.2l-0.5,0.33c0.09,0.16,0.14,0.35,0.14,0.6
		c0,0.73-0.33,1.12-1.3,1.12C38.3,45.25,38.1,45.24,37.93,45.18z M37.85,46.2c-0.27,0.18-0.42,0.44-0.42,0.67
		c0,0.46,0.31,0.73,1.07,0.73c0.96,0,1.2-0.29,1.2-0.73c0-0.33-0.17-0.52-0.92-0.58L37.85,46.2z M37.57,44.15
		c0,0.65,0.39,0.79,0.91,0.79c0.71,0,0.92-0.27,0.92-0.79c0-0.6-0.28-0.81-0.92-0.81C37.82,43.34,37.57,43.61,37.57,44.15z
		 M43.43,46.94v-2.61c0-0.66-0.37-0.94-1.02-0.94c-0.38,0-0.84,0.18-1.05,0.52v3.02h-0.39v-3.86l0.28-0.03l0.07,0.46h0.02
		c0.26-0.32,0.71-0.51,1.17-0.51c0.82,0,1.32,0.43,1.32,1.32v2.61H43.43z M45.38,42.28c-0.2,0-0.31-0.07-0.31-0.27
		c0-0.18,0.11-0.27,0.31-0.27s0.31,0.1,0.31,0.27C45.68,42.2,45.57,42.28,45.38,42.28z M45.17,46.94v-3.84l0.4-0.03v3.88H45.17z
		 M47.64,43.4v2.61c0,0.46,0.24,0.65,0.63,0.65c0.11,0,0.25-0.02,0.33-0.05l0.03,0.31c-0.1,0.05-0.29,0.08-0.46,0.08
		c-0.6,0-0.92-0.31-0.92-0.98V43.4h-0.6v-0.32h0.61l0.08-1.01l0.31-0.04v1.05h1.01v0.32H47.64z M49.92,42.28
		c-0.2,0-0.31-0.07-0.31-0.27c0-0.18,0.11-0.27,0.31-0.27s0.31,0.1,0.31,0.27C50.23,42.2,50.12,42.28,49.92,42.28z M49.72,46.94
		v-3.84l0.4-0.03v3.88H49.72z M54.77,43.08l-1.54,3.86h-0.47l-1.55-3.86h0.45l1.15,3l0.18,0.5H53l0.18-0.5l1.15-3H54.77z
		 M55.33,44.88c0-1.21,0.52-1.87,1.54-1.87c0.87,0,1.48,0.53,1.48,1.78c0,0.06-0.01,0.14-0.01,0.2h-2.6
		c0.02,1.24,0.43,1.66,1.36,1.66c0.41,0,0.74-0.1,1.07-0.27l0.05,0.35c-0.33,0.19-0.71,0.3-1.16,0.3
		C55.82,47.02,55.33,46.37,55.33,44.88z M57.98,44.71c-0.01-0.98-0.47-1.34-1.11-1.34c-0.76,0-1.1,0.45-1.14,1.34H57.98z
		 M63.51,44.65l1.37,2.28h-0.52l-1.26-2.21h-1.14v2.21h-0.43v-4.91h1.59c0.99,0,1.44,0.43,1.44,1.33
		C64.56,44.16,64.19,44.57,63.51,44.65z M63.12,42.41h-1.16v1.96h1.12c0.71,0,1.03-0.29,1.03-1C64.11,42.69,63.8,42.41,63.12,42.41z
		 M67.03,47.02c-1.13,0-1.63-0.56-1.63-2.01c0-1.43,0.51-2,1.63-2c1.13,0,1.61,0.57,1.61,2C68.64,46.46,68.17,47.02,67.03,47.02z
		 M67.03,46.68c0.86,0,1.2-0.46,1.2-1.66c0-1.2-0.33-1.65-1.2-1.65c-0.87,0-1.22,0.45-1.22,1.65
		C65.82,46.22,66.16,46.68,67.03,46.68z M71.23,47.01c-0.5,0-0.94-0.19-1.19-0.53l-0.02,0.01l-0.08,0.45h-0.26v-5.22l0.4-0.03v1.28
		l-0.01,0.52l0.01,0.01c0.27-0.33,0.71-0.5,1.19-0.5c0.9,0,1.48,0.5,1.48,2C72.75,46.47,72.2,47.01,71.23,47.01z M71.17,43.38
		c-0.47,0-0.87,0.2-1.09,0.54v2.19c0.17,0.29,0.55,0.56,1.11,0.56c0.69,0,1.17-0.35,1.17-1.66C72.35,43.71,71.91,43.38,71.17,43.38z
		 M75.13,47.02c-1.13,0-1.63-0.56-1.63-2.01c0-1.43,0.51-2,1.63-2c1.13,0,1.61,0.57,1.61,2C76.74,46.46,76.26,47.02,75.13,47.02z
		 M75.13,46.68c0.86,0,1.2-0.46,1.2-1.66c0-1.2-0.33-1.65-1.2-1.65c-0.87,0-1.22,0.45-1.22,1.65
		C73.91,46.22,74.26,46.68,75.13,46.68z M78.3,43.4v2.61c0,0.46,0.24,0.65,0.63,0.65c0.11,0,0.25-0.02,0.33-0.05l0.03,0.31
		c-0.1,0.05-0.29,0.08-0.46,0.08c-0.6,0-0.92-0.31-0.92-0.98V43.4h-0.6v-0.32h0.61l0.08-1.01l0.31-0.04v1.05h1.01v0.32H78.3z
		 M80.58,42.28c-0.2,0-0.31-0.07-0.31-0.27c0-0.18,0.11-0.27,0.31-0.27s0.31,0.1,0.31,0.27C80.89,42.2,80.78,42.28,80.58,42.28z
		 M80.38,46.94v-3.84l0.4-0.03v3.88H80.38z M82.65,44.67h0.62l1.35-1.6h0.51l-1.5,1.77l1.56,2.1h-0.5l-1.42-1.91h-0.62v1.91h-0.4
		v-5.21l0.4-0.03V44.67z"/>
	<rect x="-0.78" y="13.96" class="st2" width="99.21" height="34.89"/>
	<path class="st4" d="M397.21,47.01h3.01v-6.32h1.61c1.21,0,1.74,0.71,1.78,1.88l0.08,2.87c0.02,0.59,0.08,1.15,0.38,1.57h3.27
		v-0.12c-0.56-0.29-0.65-1.11-0.67-2.68c-0.04-3.16-0.36-4.29-2.41-4.56V39.6c1.7-0.36,2.49-1.69,2.49-3.68
		c0-2.55-1.51-3.85-3.98-3.85h-5.57V47.01z M400.23,34.28h1.42c1.36,0,2.09,0.69,2.09,2.07c0,1.61-0.82,2.24-2.26,2.24h-1.26V34.28z
		"/>
	<path class="st4" d="M352.77,32.06v10.42c0,4,2.32,4.82,4.77,4.82c2.45,0,4.77-1.01,4.77-4.82V32.06h-3.01v10.42
		c0,1.49-0.36,2.6-1.76,2.6c-1.4,0-1.76-1.11-1.76-2.6V32.06H352.77z"/>
	<polygon class="st4" points="363.05,32.06 363.05,47.01 365.81,47.01 365.81,36.54 365.86,36.54 369.54,47.01 372.97,47.01 
		372.97,32.06 370.21,32.06 370.21,42.3 370.17,42.3 366.52,32.06 	"/>
	<rect x="373.75" y="32.06" class="st4" width="3.01" height="14.95"/>
	<polygon class="st4" points="376.97,32.06 380.4,47.01 384.27,47.01 387.71,32.06 384.59,32.06 382.37,43.12 382.31,43.12 
		380.19,32.06 	"/>
	<polygon class="st4" points="387.98,32.06 387.98,47.01 396.54,47.01 396.54,44.54 390.99,44.54 390.99,40.52 396.02,40.52 
		396.02,38.05 390.99,38.05 390.99,34.53 396.33,34.53 396.33,32.06 	"/>
	<path class="st4" d="M407.01,42.34v0.61c0,2.76,1.34,4.35,4.75,4.35c3.27,0,5.19-1.42,5.19-4.58c0-1.82-0.59-2.97-2.85-3.96
		l-2.32-1.01c-1.28-0.54-1.55-1.11-1.55-2.03c0-0.88,0.36-1.74,1.72-1.74c1.15,0,1.63,0.82,1.63,2.22h2.89v-0.42
		c0-2.87-1.95-4.02-4.63-4.02c-2.85,0-4.63,1.49-4.63,4.4c0,2.49,1.23,3.6,3.91,4.52c1.99,0.69,2.68,1.19,2.68,2.55
		c0,1.26-0.88,1.84-1.8,1.84c-1.59,0-1.99-0.9-1.99-2.3v-0.44H407.01z"/>
	<rect x="417.34" y="32.06" class="st4" width="3.01" height="14.95"/>
	<polygon class="st4" points="436.02,32.06 433.92,37.84 433.88,37.84 431.91,32.06 420.75,32.06 420.75,34.53 424.02,34.53 
		424.02,47.01 427.04,47.01 427.04,34.53 429.58,34.53 432.4,41.13 432.4,47.01 435.41,47.01 435.41,41.13 439.28,32.06 	"/>
	<path class="st5" d="M326.28,30.7h-0.19h-4.8v-1.69V15.8v-0.11h4.79h0.01h3.39c2.22,0,4.14,1.44,4.76,3.34
		c0.58,1.77,0.08,3.69-1.22,5.05c0.17,0.47,0.34,0.84,0.5,1.26c0.36,0.84,0.7,1.67,1.06,2.5l1.19,2.86h-0.03h-5.03
		c0,0-0.04-0.12-0.08-0.17c-0.2-0.44-0.38-0.92-0.58-1.36l-1.22-2.89c-0.48-1.17-0.97-2.27-1.45-3.44c0.6-0.02,1.05,0.1,1.64-0.17
		c0.41-0.2,1.03-0.7,1.05-1.66c-0.02-0.47-0.15-0.83-0.46-1.21c-0.32-0.35-0.77-0.61-1.37-0.61c0,0-1.94,0-1.94,0V30.7z"/>
	<path class="st5" d="M378.46,15.69V30.7h-3.9h-1.1v-6.12H373h-2.99h-0.04v6.12c-0.91,0-1.88-0.01-2.79,0h-2.21V19.16h-3.49v0.36
		v1.09v4.94v5.15h-0.04h-4.95v-6.22v-0.24v-5.08h-3.52v5.45v6.09h-5.15c-0.9-2.17-1.84-4.35-2.72-6.51c-0.1-0.45-0.2-0.91-0.33-1.35
		v7.85h-5.16c-1.02-2.38-2-4.7-3.02-7.12c-0.35-0.83-0.64-1.51-1.01-2.38l-0.05-0.11l-0.79-1.86l-1.14-2.66
		c-0.1-0.3-0.26-0.57-0.36-0.88h5.14c1.06,2.57,2.12,5.1,3.23,7.63l0.03,0.06c-0.04-0.29-0.13-0.66-0.18-0.95v-4.48
		c0.01-0.72,0-1.53,0-2.27h5.15c0.07,0.16,0.1,0.25,0.15,0.38c0.6,1.42,1.18,2.83,1.78,4.24l1.35,3.07
		c-0.03-0.32-0.1-0.63-0.14-0.95v-6.75h0.41h3.51h12.69h3.61v0.94v4.48h0.24h3.26v-5.42h2.6H378.46z"/>
	<path class="st4" d="M392.95,25.04l1.45-6.75h0.04l1.45,6.75H392.95z M382.94,25.04l1.45-6.75h0.04l1.45,6.75H382.94z
		 M396.29,15.69h-3.74l-3.13,11.83l-3.13-11.83h-3.74l-3.98,15.01h3.15l0.69-3.17h4l0.69,3.17h4.63l0.69-3.17h4l0.69,3.17h3.15
		L396.29,15.69z"/>
	<path class="st4" d="M409.28,20.81c0-2.18-0.31-5.34-4.63-5.34c-4.52,0-5.09,3.22-5.09,7.77s0.57,7.77,5.09,7.77
		c3.96,0,4.75-2.78,4.75-6.01h-3.01c0,3.22-0.8,3.79-1.88,3.79c-1.3,0-1.93-0.82-1.93-5.34c0-4.23,0.36-5.76,1.88-5.76
		c1.36,0,1.8,0.94,1.8,3.12H409.28z"/>
	<polygon class="st4" points="410.01,30.7 413.03,30.7 413.03,24.04 416.57,24.04 416.57,30.7 419.59,30.7 419.59,15.69 
		416.57,15.69 416.57,21.43 413.03,21.43 413.03,15.69 410.01,15.69 	"/>
	<polygon class="st4" points="420.25,15.68 420.25,30.7 428.85,30.7 428.85,28.22 423.28,28.22 423.28,24.18 428.33,24.18 
		428.33,21.7 423.28,21.7 423.28,18.17 428.64,18.17 428.64,15.68 	"/>
	<polygon class="st4" points="429.3,15.69 429.3,30.7 432.08,30.7 432.08,20.19 432.12,20.19 435.82,30.7 439.27,30.7 439.27,15.69 
		436.49,15.69 436.49,25.97 436.45,25.97 432.79,15.69 	"/>
	<rect x="311.11" y="15.67" class="st5" width="0.69" height="31.46"/>
	<path class="st5" d="M270.29,33.74h7.15V20.62L270.29,33.74z M228.05,45.22h12.4l15.22-27.82h-10.94l-7.6,13.7v-13.7h-9.74
		l-7.6,13.89V17.41h-9.29v27.82h11.24l6.32-11.66V45.22z M251.08,45.24h26.36v-9.75h-10.1l9.85-18.09h-19.51l-5.53,10.1h8.72
		L251.08,45.24z M279.19,45.24h14.14l5.32-9.6h-10.11V17.41h-9.35V45.24z M294.36,46.99H248.1l9.8-17.73h-6.71l-9.69,17.71h-15.2
		v-6.49l-3.52,6.49h-14.04V15.65h12.8v8.78l4.81-8.78h12.54v8.67l4.81-8.67h46.59v18.23h11.33L294.36,46.99z"/>
	<rect x="198.84" y="15.87" class="st6" width="0.69" height="31.27"/>
	<path class="st7" d="M143.96,20.21c0.07-0.12,0.1-0.27,0.1-0.45c0-0.36-0.11-0.61-0.33-0.75c-0.22-0.14-0.46-0.21-0.73-0.21h-2.01
		v1.91H143c0.11,0,0.23-0.02,0.36-0.05c0.13-0.03,0.24-0.09,0.34-0.16C143.8,20.43,143.89,20.33,143.96,20.21 M144.07,24.42
		c0.26-0.17,0.39-0.46,0.39-0.86c0-0.44-0.14-0.74-0.4-0.91c-0.27-0.17-0.6-0.26-0.99-0.26h-2.08v2.29h2.08
		C143.48,24.67,143.81,24.59,144.07,24.42 M145.34,21.3c0.53,0.16,0.95,0.45,1.26,0.87c0.31,0.42,0.46,0.92,0.46,1.49
		c0,0.6-0.1,1.09-0.31,1.49c-0.2,0.39-0.48,0.71-0.83,0.95c-0.35,0.24-0.76,0.41-1.23,0.51c-0.47,0.1-0.98,0.15-1.51,0.15h-4.78
		v-9.96h4.66c0.43-0.01,0.86,0.02,1.28,0.08c0.43,0.07,0.81,0.19,1.16,0.38c0.34,0.19,0.62,0.44,0.84,0.77
		c0.21,0.33,0.32,0.75,0.32,1.27c0,0.45-0.12,0.84-0.36,1.19C146.05,20.83,145.73,21.1,145.34,21.3 M132.64,20.71l4.14,6.04h-3.22
		l-2.68-4.18l-1.06,1.11v3.07h-2.59v-9.96h2.59v3.82l3.28-3.82h3.22L132.64,20.71z M125.02,28.15h21.83v2.2h-21.83v2.3h21.83v2.21
		h-21.83v11.36h-2.21V16.79h2.21V28.15z M126.93,42.86h2.59c0.03,0.59,0.21,0.99,0.54,1.21c0.34,0.22,0.78,0.33,1.34,0.33
		c0.19,0,0.39-0.02,0.58-0.06c0.19-0.04,0.36-0.09,0.51-0.17c0.15-0.08,0.27-0.18,0.36-0.31c0.09-0.13,0.14-0.29,0.14-0.47
		c0-0.22-0.08-0.4-0.24-0.54c-0.16-0.14-0.38-0.26-0.65-0.36c-0.27-0.1-0.57-0.19-0.91-0.27c-0.34-0.08-0.69-0.17-1.05-0.27
		c-0.35-0.1-0.7-0.22-1.05-0.36c-0.35-0.14-0.66-0.32-0.93-0.54c-0.27-0.22-0.5-0.49-0.67-0.81c-0.17-0.32-0.26-0.71-0.26-1.16
		c0-0.54,0.12-1,0.37-1.39c0.25-0.39,0.56-0.7,0.96-0.94c0.39-0.24,0.83-0.42,1.31-0.53c0.48-0.11,0.96-0.17,1.42-0.17
		c0.49,0,0.98,0.06,1.46,0.19c0.48,0.13,0.9,0.32,1.28,0.58c0.37,0.26,0.67,0.59,0.91,1c0.23,0.4,0.35,0.88,0.35,1.44h-2.59
		c0.01-0.22-0.03-0.41-0.12-0.56c-0.09-0.15-0.22-0.28-0.37-0.37c-0.15-0.09-0.33-0.16-0.52-0.2c-0.2-0.04-0.39-0.06-0.59-0.06
		c-0.14,0-0.28,0.01-0.43,0.04c-0.15,0.03-0.28,0.07-0.4,0.14c-0.12,0.07-0.22,0.15-0.3,0.26c-0.08,0.11-0.12,0.24-0.12,0.41
		c0,0.19,0.08,0.35,0.24,0.47c0.16,0.12,0.38,0.23,0.65,0.32c0.27,0.09,0.58,0.18,0.93,0.25c0.34,0.07,0.7,0.16,1.06,0.26
		c0.36,0.1,0.72,0.23,1.06,0.37c0.34,0.15,0.65,0.33,0.92,0.55c0.27,0.22,0.49,0.49,0.66,0.81c0.17,0.32,0.25,0.7,0.25,1.15
		c0,0.63-0.12,1.16-0.37,1.59c-0.25,0.43-0.57,0.77-0.98,1.03c-0.4,0.26-0.87,0.44-1.39,0.55c-0.52,0.11-1.05,0.17-1.6,0.17
		c-0.58,0-1.12-0.07-1.64-0.19c-0.52-0.13-0.97-0.34-1.37-0.63c-0.4-0.29-0.72-0.65-0.95-1.1C127.05,44.04,126.93,43.5,126.93,42.86
		 M137.28,41.23c0-0.73,0.12-1.4,0.35-2.03c0.23-0.63,0.57-1.18,1-1.65c0.43-0.47,0.96-0.84,1.57-1.11c0.61-0.27,1.3-0.41,2.05-0.41
		c0.51,0,1.02,0.07,1.54,0.21c0.52,0.14,0.98,0.36,1.4,0.65c0.42,0.29,0.77,0.67,1.05,1.12c0.28,0.46,0.45,0.99,0.51,1.62h-2.59
		c-0.05-0.43-0.25-0.76-0.62-1.01c-0.37-0.24-0.82-0.36-1.35-0.36c-0.42,0-0.77,0.08-1.07,0.25c-0.29,0.17-0.53,0.39-0.72,0.67
		c-0.19,0.28-0.32,0.59-0.4,0.95c-0.08,0.35-0.12,0.72-0.12,1.09c0,0.37,0.04,0.73,0.12,1.09c0.08,0.35,0.22,0.67,0.4,0.95
		c0.19,0.28,0.43,0.5,0.72,0.67s0.65,0.25,1.07,0.25c0.64,0,1.16-0.14,1.57-0.41c0.4-0.27,0.64-0.64,0.72-1.09h-1.81v-1.93h4.18
		v5.45h-1.67l-0.15-1.09c-0.17,0.24-0.36,0.44-0.59,0.61c-0.23,0.16-0.46,0.3-0.71,0.4c-0.25,0.1-0.49,0.18-0.75,0.22
		c-0.25,0.05-0.49,0.07-0.73,0.07c-0.75,0-1.44-0.13-2.05-0.4c-0.61-0.27-1.14-0.64-1.57-1.11c-0.43-0.47-0.77-1.02-1-1.65
		C137.4,42.63,137.28,41.95,137.28,41.23 M151.64,14.69h-33.62v33.62h33.62V14.69z"/>
	<polygon class="st8" points="125.02,32.65 125.02,30.35 146.85,30.35 146.85,28.15 125.02,28.15 125.02,16.79 122.81,16.79 
		122.81,46.21 125.02,46.21 125.02,34.85 146.85,34.85 146.85,32.65 	"/>
	<path class="st0" d="M126.93,42.86c0,0.64,0.12,1.19,0.36,1.63s0.56,0.81,0.96,1.1c0.4,0.29,0.86,0.5,1.37,0.63
		c0.52,0.13,1.06,0.2,1.64,0.2c0.55,0,1.08-0.06,1.6-0.17c0.52-0.11,0.98-0.3,1.39-0.55c0.4-0.25,0.73-0.6,0.98-1.02
		c0.25-0.43,0.37-0.96,0.37-1.59c0-0.45-0.08-0.83-0.25-1.15c-0.17-0.32-0.39-0.59-0.65-0.81c-0.27-0.22-0.58-0.4-0.92-0.55
		c-0.34-0.14-0.7-0.27-1.06-0.37c-0.36-0.1-0.72-0.19-1.06-0.27c-0.34-0.07-0.65-0.16-0.93-0.25c-0.27-0.09-0.49-0.2-0.65-0.32
		c-0.16-0.12-0.24-0.28-0.24-0.47c0-0.17,0.04-0.31,0.12-0.41c0.08-0.11,0.18-0.19,0.3-0.26c0.12-0.06,0.26-0.11,0.4-0.14
		c0.15-0.03,0.29-0.04,0.43-0.04c0.2,0,0.39,0.02,0.59,0.06s0.37,0.11,0.52,0.2c0.15,0.09,0.28,0.22,0.37,0.37
		c0.09,0.16,0.13,0.34,0.13,0.57h2.59c0-0.56-0.11-1.04-0.35-1.44s-0.54-0.74-0.91-1c-0.37-0.26-0.8-0.45-1.28-0.58
		c-0.48-0.13-0.96-0.19-1.46-0.19c-0.47,0-0.94,0.06-1.42,0.17c-0.48,0.11-0.92,0.29-1.31,0.53c-0.39,0.24-0.71,0.56-0.96,0.94
		c-0.25,0.39-0.37,0.85-0.37,1.39c0,0.45,0.09,0.84,0.26,1.16c0.17,0.32,0.4,0.59,0.67,0.81c0.27,0.22,0.58,0.4,0.93,0.54
		s0.7,0.26,1.05,0.36c0.36,0.1,0.71,0.19,1.05,0.27c0.34,0.08,0.64,0.17,0.91,0.27c0.27,0.1,0.49,0.22,0.65,0.36
		c0.16,0.14,0.24,0.32,0.24,0.54c0,0.19-0.05,0.34-0.14,0.47c-0.09,0.13-0.21,0.24-0.36,0.31c-0.15,0.08-0.32,0.14-0.51,0.18
		c-0.19,0.04-0.38,0.06-0.58,0.06c-0.56,0-1.01-0.11-1.34-0.33c-0.33-0.22-0.52-0.63-0.54-1.21H126.93"/>
	<polygon class="st0" points="127.23,26.75 129.82,26.75 129.82,23.68 130.88,22.56 133.56,26.75 136.78,26.75 132.64,20.71 
		136.32,16.79 133.1,16.79 129.82,20.61 129.82,16.79 127.23,16.79 	"/>
	<path class="st0" d="M140.99,22.38h2.08c0.39,0,0.72,0.09,0.99,0.26c0.27,0.17,0.4,0.48,0.4,0.91c0,0.41-0.13,0.7-0.39,0.86
		c-0.26,0.17-0.6,0.25-1,0.25h-2.08V22.38 M138.4,26.75h4.78c0.53,0,1.03-0.05,1.51-0.15c0.48-0.1,0.89-0.27,1.23-0.51
		c0.35-0.24,0.62-0.55,0.83-0.95c0.2-0.4,0.31-0.89,0.31-1.48c0-0.57-0.15-1.06-0.46-1.49c-0.31-0.42-0.73-0.71-1.25-0.87
		c0.39-0.19,0.71-0.47,0.95-0.81c0.24-0.35,0.36-0.75,0.36-1.19c0-0.52-0.11-0.94-0.32-1.27c-0.21-0.32-0.49-0.58-0.84-0.77
		c-0.34-0.19-0.73-0.31-1.16-0.38c-0.43-0.06-0.85-0.09-1.28-0.08h-4.66V26.75z M140.99,18.8H143c0.27,0,0.51,0.07,0.73,0.21
		c0.22,0.14,0.33,0.39,0.33,0.75c0,0.18-0.04,0.33-0.1,0.45c-0.07,0.12-0.16,0.22-0.26,0.29c-0.1,0.07-0.22,0.13-0.34,0.16
		c-0.12,0.03-0.24,0.05-0.36,0.05h-2.01V18.8z"/>
	<path class="st0" d="M146.85,40.75h-4.18v1.92h1.81c-0.08,0.46-0.32,0.82-0.72,1.1c-0.4,0.27-0.93,0.41-1.57,0.41
		c-0.42,0-0.77-0.08-1.07-0.25s-0.53-0.39-0.72-0.67c-0.18-0.28-0.32-0.6-0.4-0.95c-0.08-0.35-0.13-0.72-0.13-1.09
		c0-0.37,0.04-0.74,0.13-1.09c0.08-0.35,0.22-0.67,0.4-0.95c0.19-0.28,0.42-0.5,0.72-0.67c0.29-0.17,0.65-0.25,1.07-0.25
		c0.53,0,0.98,0.12,1.35,0.36c0.37,0.24,0.57,0.58,0.62,1h2.59c-0.06-0.62-0.23-1.16-0.51-1.62c-0.28-0.45-0.63-0.83-1.05-1.12
		c-0.42-0.29-0.89-0.51-1.4-0.65c-0.52-0.14-1.03-0.21-1.54-0.21c-0.75,0-1.44,0.13-2.05,0.4c-0.61,0.27-1.14,0.64-1.57,1.11
		c-0.43,0.47-0.76,1.02-1,1.65c-0.23,0.63-0.35,1.3-0.35,2.03c0,0.72,0.12,1.4,0.35,2.03c0.23,0.63,0.56,1.18,1,1.64
		c0.43,0.47,0.96,0.84,1.57,1.11c0.61,0.27,1.3,0.4,2.05,0.4c0.23,0,0.47-0.02,0.72-0.07c0.25-0.05,0.5-0.12,0.75-0.22
		s0.48-0.23,0.71-0.4c0.23-0.16,0.43-0.37,0.59-0.61l0.15,1.09h1.67V40.75"/>
	<path class="st6" d="M170.86,44.37c0.06-0.2,0.2-0.31,0.41-0.31c0.21,0,0.34,0.1,0.4,0.31c0.06,0.2,0.09,0.51,0.09,0.91
		c0,0.4-0.03,0.71-0.09,0.91c-0.06,0.21-0.2,0.31-0.4,0.31c-0.21,0-0.35-0.1-0.41-0.31c-0.06-0.2-0.09-0.51-0.09-0.91
		C170.77,44.88,170.8,44.57,170.86,44.37 M169.81,48.35h0.95v-1.56h0.01c0.1,0.15,0.21,0.26,0.34,0.33
		c0.13,0.07,0.28,0.11,0.46,0.11c0.39,0,0.68-0.15,0.86-0.46c0.18-0.31,0.28-0.8,0.28-1.49c0-0.69-0.09-1.19-0.28-1.49
		c-0.18-0.31-0.47-0.46-0.86-0.46c-0.19,0-0.36,0.04-0.49,0.11c-0.13,0.08-0.25,0.2-0.36,0.38h-0.01v-0.39h-0.91V48.35z
		 M168.23,47.14h0.91v-3.71h-0.95v2.46c0,0.41-0.17,0.61-0.5,0.61c-0.14,0-0.25-0.04-0.31-0.11c-0.07-0.08-0.1-0.21-0.1-0.4v-2.56
		h-0.95v2.75c0,0.37,0.08,0.64,0.24,0.81c0.16,0.17,0.4,0.25,0.7,0.25c0.21,0,0.39-0.04,0.55-0.13c0.16-0.08,0.29-0.22,0.39-0.4
		h0.01V47.14z M163.81,44.76c0.01-0.16,0.03-0.3,0.07-0.41c0.04-0.12,0.08-0.21,0.15-0.27c0.07-0.06,0.16-0.1,0.28-0.1
		c0.19,0,0.33,0.1,0.4,0.3c0.07,0.2,0.11,0.54,0.11,1c0,0.46-0.04,0.8-0.11,1c-0.07,0.2-0.21,0.3-0.4,0.3
		c-0.12,0-0.21-0.03-0.28-0.1c-0.07-0.06-0.12-0.15-0.15-0.27c-0.03-0.12-0.06-0.25-0.07-0.41c-0.01-0.16-0.01-0.34-0.01-0.52
		C163.8,45.09,163.8,44.92,163.81,44.76 M162.92,46.14c0.05,0.24,0.12,0.45,0.24,0.61c0.11,0.17,0.26,0.29,0.45,0.37
		c0.19,0.08,0.42,0.12,0.71,0.12c0.27,0,0.5-0.04,0.69-0.13c0.19-0.08,0.34-0.21,0.45-0.37c0.11-0.16,0.2-0.37,0.25-0.61
		c0.05-0.24,0.08-0.52,0.08-0.84c0-0.32-0.02-0.61-0.07-0.85s-0.12-0.45-0.23-0.62c-0.11-0.17-0.26-0.29-0.45-0.37
		c-0.19-0.08-0.43-0.12-0.71-0.11c-0.27,0-0.5,0.04-0.68,0.13c-0.19,0.08-0.34,0.21-0.45,0.37c-0.11,0.16-0.2,0.37-0.25,0.61
		c-0.05,0.24-0.08,0.52-0.08,0.84C162.85,45.61,162.87,45.89,162.92,46.14 M160.59,47.14h0.95v-2.23c0-0.12,0.02-0.23,0.06-0.31
		c0.04-0.09,0.1-0.15,0.17-0.21c0.07-0.05,0.14-0.09,0.23-0.11c0.08-0.02,0.17-0.03,0.25-0.03c0.05,0,0.1,0,0.15,0
		c0.05,0,0.1,0.01,0.15,0.01v-0.91c-0.03-0.01-0.06-0.01-0.09-0.01c-0.03,0-0.06,0-0.09,0c-0.2,0-0.37,0.05-0.5,0.16
		c-0.14,0.11-0.26,0.25-0.35,0.43h-0.01v-0.5h-0.91V47.14z M159.85,43.68c0-0.5-0.12-0.89-0.36-1.15c-0.24-0.27-0.63-0.4-1.17-0.4
		c-0.32,0-0.58,0.05-0.79,0.16c-0.21,0.1-0.38,0.26-0.51,0.47c-0.13,0.21-0.22,0.47-0.27,0.78c-0.05,0.31-0.08,0.68-0.08,1.09
		c0,0.43,0.02,0.8,0.05,1.13c0.04,0.32,0.11,0.6,0.22,0.82c0.11,0.22,0.26,0.39,0.45,0.5c0.19,0.11,0.44,0.17,0.74,0.17
		c0.23,0,0.44-0.04,0.6-0.13c0.17-0.09,0.31-0.23,0.43-0.42h0.01v0.46h0.73v-2.65h-1.61v0.73h0.65v0.5c0,0.13-0.02,0.25-0.06,0.35
		c-0.04,0.1-0.09,0.18-0.15,0.25c-0.06,0.06-0.13,0.11-0.2,0.14c-0.07,0.03-0.14,0.05-0.2,0.05c-0.14,0-0.26-0.04-0.35-0.13
		c-0.09-0.09-0.16-0.22-0.21-0.39c-0.05-0.17-0.08-0.37-0.1-0.61c-0.02-0.24-0.03-0.51-0.03-0.8c0-0.62,0.05-1.06,0.16-1.32
		c0.11-0.27,0.28-0.4,0.52-0.4c0.1,0,0.19,0.03,0.26,0.08c0.07,0.05,0.13,0.12,0.17,0.2c0.05,0.08,0.08,0.17,0.1,0.27
		c0.02,0.1,0.03,0.19,0.03,0.28H159.85z"/>
	<path class="st6" d="M177.12,38.1v0.13c0,0.18,0.02,0.34,0.06,0.49c0.04,0.15,0.11,0.27,0.22,0.37c0.1,0.1,0.24,0.18,0.42,0.24
		c0.17,0.06,0.4,0.08,0.67,0.08c0.2,0,0.38-0.02,0.55-0.07c0.17-0.05,0.32-0.12,0.44-0.22c0.12-0.1,0.22-0.22,0.29-0.37
		c0.07-0.15,0.1-0.32,0.1-0.51c0-0.28-0.06-0.5-0.18-0.67c-0.12-0.16-0.34-0.3-0.64-0.4l-0.57-0.19c-0.16-0.05-0.27-0.11-0.33-0.19
		c-0.06-0.07-0.09-0.16-0.09-0.25c0-0.13,0.04-0.23,0.13-0.3c0.09-0.07,0.19-0.1,0.31-0.1c0.15,0,0.26,0.04,0.33,0.13
		c0.06,0.09,0.09,0.23,0.09,0.42h0.86v-0.15c0-0.34-0.1-0.6-0.31-0.78c-0.21-0.18-0.53-0.28-0.96-0.28c-0.24,0-0.45,0.03-0.62,0.09
		c-0.17,0.06-0.32,0.14-0.42,0.24c-0.11,0.1-0.19,0.22-0.24,0.35c-0.05,0.14-0.08,0.28-0.08,0.43c0,0.26,0.07,0.48,0.2,0.64
		c0.13,0.17,0.33,0.3,0.59,0.39l0.67,0.24c0.09,0.04,0.17,0.09,0.24,0.15c0.07,0.06,0.1,0.15,0.1,0.27c0,0.15-0.04,0.26-0.13,0.33
		c-0.09,0.07-0.2,0.11-0.35,0.11c-0.16,0-0.28-0.05-0.37-0.15c-0.09-0.1-0.13-0.23-0.13-0.39V38.1H177.12 M172,39.32h0.95v-2.44
		c0-0.22,0.04-0.38,0.13-0.48c0.09-0.1,0.21-0.15,0.36-0.15c0.13,0,0.23,0.04,0.29,0.12c0.06,0.08,0.09,0.2,0.09,0.36v2.59h0.95
		v-2.44c0-0.22,0.04-0.38,0.13-0.48c0.09-0.1,0.21-0.15,0.36-0.15c0.13,0,0.23,0.04,0.29,0.12c0.06,0.08,0.09,0.2,0.09,0.36v2.59
		h0.95v-2.7c0-0.36-0.08-0.63-0.23-0.82c-0.15-0.19-0.38-0.29-0.7-0.29c-0.23,0-0.42,0.05-0.58,0.15c-0.16,0.1-0.28,0.25-0.36,0.44
		h-0.01c-0.05-0.19-0.15-0.34-0.3-0.44c-0.15-0.1-0.33-0.15-0.55-0.15c-0.21,0-0.39,0.04-0.53,0.11c-0.15,0.07-0.28,0.19-0.4,0.37
		h-0.02v-0.38H172V39.32z M169.57,37.04V36.9c0-0.09,0.01-0.17,0.02-0.26c0.02-0.09,0.04-0.17,0.08-0.24
		c0.04-0.07,0.09-0.13,0.15-0.17c0.06-0.04,0.14-0.06,0.24-0.06c0.1,0,0.18,0.02,0.24,0.06c0.06,0.04,0.11,0.1,0.15,0.17
		s0.06,0.17,0.07,0.28c0.01,0.11,0.02,0.23,0.03,0.38H169.57z M171.45,37.61v-0.21c0-0.28-0.02-0.54-0.05-0.77
		c-0.04-0.23-0.11-0.43-0.21-0.59c-0.1-0.16-0.24-0.29-0.42-0.38c-0.18-0.09-0.4-0.14-0.68-0.14c-0.32,0-0.58,0.05-0.77,0.16
		c-0.19,0.1-0.34,0.25-0.44,0.43c-0.1,0.18-0.17,0.38-0.21,0.61c-0.03,0.23-0.05,0.47-0.05,0.72c0,0.23,0.01,0.46,0.03,0.7
		c0.02,0.24,0.08,0.45,0.17,0.64c0.09,0.19,0.23,0.35,0.43,0.47c0.19,0.12,0.46,0.18,0.81,0.18c0.46,0,0.79-0.12,1-0.35
		c0.21-0.23,0.33-0.56,0.35-1h-0.85c-0.03,0.23-0.08,0.41-0.15,0.52c-0.07,0.12-0.19,0.17-0.35,0.17c-0.09,0-0.16-0.02-0.22-0.07
		c-0.06-0.05-0.11-0.11-0.15-0.19c-0.04-0.08-0.06-0.17-0.08-0.28c-0.02-0.1-0.02-0.21-0.02-0.32v-0.3H171.45z M166.83,35.61h-0.48
		v0.65h0.48v2.12c0,0.19,0.01,0.34,0.03,0.47c0.02,0.12,0.07,0.22,0.13,0.3c0.06,0.08,0.15,0.13,0.27,0.16
		c0.11,0.03,0.27,0.05,0.45,0.05c0.11,0,0.21,0,0.31-0.01c0.1-0.01,0.2-0.02,0.31-0.03v-0.66c-0.03,0.01-0.07,0.01-0.1,0.01
		c-0.04,0-0.07,0-0.11,0c-0.14,0-0.23-0.03-0.27-0.09c-0.04-0.06-0.07-0.17-0.07-0.31v-2.01h0.55v-0.65h-0.55v-1.06h-0.95V35.61z
		 M163.31,38.1v0.13c0,0.18,0.02,0.34,0.06,0.49c0.04,0.15,0.11,0.27,0.22,0.37c0.1,0.1,0.24,0.18,0.42,0.24
		c0.17,0.06,0.4,0.08,0.67,0.08c0.2,0,0.38-0.02,0.55-0.07c0.17-0.05,0.32-0.12,0.44-0.22c0.12-0.1,0.22-0.22,0.29-0.37
		c0.07-0.15,0.1-0.32,0.1-0.51c0-0.28-0.06-0.5-0.19-0.67c-0.12-0.16-0.34-0.3-0.64-0.4l-0.57-0.19c-0.16-0.05-0.27-0.11-0.33-0.19
		c-0.06-0.07-0.09-0.16-0.09-0.25c0-0.13,0.04-0.23,0.13-0.3c0.09-0.07,0.19-0.1,0.31-0.1c0.16,0,0.26,0.04,0.33,0.13
		c0.06,0.09,0.09,0.23,0.09,0.42h0.86v-0.15c0-0.34-0.1-0.6-0.31-0.78c-0.21-0.18-0.53-0.28-0.96-0.28c-0.24,0-0.45,0.03-0.62,0.09
		c-0.17,0.06-0.31,0.14-0.42,0.24c-0.11,0.1-0.19,0.22-0.24,0.35c-0.05,0.14-0.08,0.28-0.08,0.43c0,0.26,0.07,0.48,0.2,0.64
		c0.13,0.17,0.33,0.3,0.59,0.39l0.67,0.24c0.09,0.04,0.17,0.09,0.24,0.15c0.07,0.06,0.1,0.15,0.1,0.27c0,0.15-0.04,0.26-0.13,0.33
		c-0.09,0.07-0.2,0.11-0.35,0.11c-0.16,0-0.28-0.05-0.37-0.15c-0.09-0.1-0.13-0.23-0.13-0.39V38.1H163.31z M160.37,40.53h0.39
		c0.22,0,0.4-0.02,0.55-0.05c0.14-0.03,0.27-0.1,0.37-0.2c0.1-0.1,0.21-0.29,0.31-0.55c0.1-0.26,0.17-0.48,0.2-0.66l0.9-3.46h-0.95
		l-0.48,2.57h-0.01l-0.55-2.57h-0.99l1.04,3.71c-0.01,0.17-0.06,0.29-0.13,0.39c-0.08,0.09-0.2,0.14-0.38,0.14
		c-0.08,0-0.17-0.01-0.25-0.02V40.53z M156.52,37.78v0.2c0,0.45,0.12,0.81,0.36,1.06c0.24,0.25,0.64,0.38,1.2,0.38
		c0.54,0,0.96-0.12,1.26-0.37c0.3-0.24,0.45-0.62,0.45-1.14c0-0.15-0.01-0.29-0.04-0.41c-0.03-0.12-0.08-0.24-0.15-0.34
		c-0.07-0.1-0.17-0.2-0.29-0.29c-0.12-0.09-0.27-0.18-0.46-0.26l-0.77-0.33c-0.21-0.09-0.35-0.18-0.41-0.29
		c-0.06-0.1-0.1-0.23-0.1-0.38c0-0.07,0.01-0.14,0.02-0.21c0.02-0.07,0.05-0.13,0.09-0.18c0.04-0.05,0.1-0.1,0.18-0.13
		c0.07-0.03,0.17-0.05,0.28-0.05c0.19,0,0.33,0.06,0.41,0.19c0.08,0.13,0.12,0.31,0.12,0.54h0.95v-0.14c0-0.23-0.04-0.44-0.11-0.6
		c-0.08-0.17-0.18-0.3-0.32-0.41c-0.14-0.11-0.3-0.19-0.48-0.23c-0.19-0.05-0.39-0.07-0.61-0.07c-0.47,0-0.85,0.12-1.12,0.36
		c-0.27,0.24-0.41,0.6-0.41,1.09c0,0.2,0.03,0.38,0.08,0.53c0.05,0.15,0.13,0.29,0.24,0.41c0.11,0.12,0.24,0.22,0.4,0.31
		c0.16,0.09,0.35,0.17,0.57,0.24c0.17,0.06,0.3,0.11,0.42,0.16c0.11,0.05,0.2,0.11,0.27,0.18c0.07,0.06,0.12,0.14,0.15,0.22
		c0.03,0.08,0.04,0.18,0.04,0.29c0,0.21-0.06,0.36-0.18,0.46c-0.12,0.1-0.26,0.15-0.41,0.15c-0.13,0-0.24-0.02-0.32-0.05
		c-0.08-0.04-0.15-0.09-0.2-0.15c-0.05-0.06-0.08-0.14-0.1-0.24c-0.02-0.1-0.03-0.2-0.03-0.31v-0.15H156.52z"/>
	<path class="st6" d="M171.22,28.73c0.06-0.2,0.2-0.31,0.4-0.31c0.21,0,0.35,0.1,0.41,0.31c0.06,0.21,0.09,0.51,0.09,0.91
		c0,0.4-0.03,0.71-0.09,0.91c-0.06,0.21-0.2,0.31-0.41,0.31c-0.21,0-0.34-0.1-0.4-0.31c-0.06-0.2-0.09-0.51-0.09-0.91
		C171.13,29.24,171.16,28.94,171.22,28.73 M172.17,31.5h0.91v-4.92h-0.95v1.56h-0.01c-0.1-0.15-0.21-0.26-0.34-0.33
		c-0.13-0.07-0.28-0.11-0.46-0.11c-0.39,0-0.68,0.15-0.86,0.46c-0.18,0.31-0.28,0.8-0.28,1.49c0,0.69,0.09,1.19,0.28,1.49
		c0.18,0.31,0.47,0.46,0.86,0.46c0.19,0,0.36-0.04,0.49-0.11s0.25-0.2,0.35-0.38h0.01V31.5z M167.84,29.23v-0.15
		c0-0.09,0.01-0.17,0.02-0.26c0.02-0.09,0.04-0.17,0.08-0.24c0.04-0.07,0.09-0.13,0.15-0.17c0.06-0.04,0.14-0.06,0.24-0.06
		c0.1,0,0.18,0.02,0.24,0.06c0.06,0.04,0.11,0.1,0.15,0.17c0.03,0.08,0.06,0.17,0.07,0.28c0.01,0.11,0.02,0.23,0.03,0.38H167.84z
		 M169.72,29.79v-0.21c0-0.28-0.02-0.54-0.06-0.78c-0.04-0.23-0.11-0.43-0.21-0.59c-0.1-0.16-0.24-0.29-0.42-0.38
		c-0.18-0.09-0.4-0.13-0.68-0.13c-0.32,0-0.58,0.05-0.77,0.16c-0.19,0.11-0.34,0.25-0.44,0.43c-0.1,0.18-0.17,0.38-0.21,0.61
		c-0.04,0.23-0.05,0.47-0.05,0.72c0,0.23,0.01,0.46,0.03,0.7c0.02,0.24,0.08,0.45,0.17,0.64c0.09,0.19,0.23,0.35,0.43,0.47
		c0.19,0.12,0.46,0.18,0.81,0.18c0.46,0,0.79-0.12,1-0.35c0.21-0.23,0.33-0.57,0.35-1h-0.85c-0.03,0.23-0.08,0.41-0.15,0.52
		c-0.07,0.12-0.19,0.17-0.35,0.17c-0.09,0-0.16-0.02-0.22-0.07c-0.06-0.05-0.11-0.11-0.15-0.19c-0.04-0.08-0.06-0.17-0.08-0.28
		c-0.02-0.1-0.02-0.21-0.02-0.32v-0.3H169.72z M163.74,30.29v0.13c0,0.18,0.02,0.34,0.06,0.49c0.04,0.15,0.11,0.27,0.22,0.37
		c0.1,0.1,0.24,0.18,0.42,0.24c0.17,0.05,0.4,0.08,0.67,0.08c0.2,0,0.38-0.02,0.55-0.07c0.17-0.05,0.32-0.12,0.44-0.22
		c0.12-0.1,0.22-0.22,0.29-0.37s0.1-0.32,0.1-0.51c0-0.28-0.06-0.5-0.19-0.67c-0.12-0.16-0.34-0.29-0.63-0.4l-0.57-0.19
		c-0.16-0.05-0.27-0.11-0.33-0.19c-0.06-0.07-0.09-0.16-0.09-0.25c0-0.13,0.05-0.23,0.13-0.3c0.09-0.07,0.19-0.1,0.31-0.1
		c0.16,0,0.27,0.05,0.33,0.13c0.06,0.09,0.09,0.23,0.09,0.42h0.85v-0.15c0-0.34-0.1-0.6-0.31-0.78c-0.21-0.19-0.53-0.28-0.96-0.28
		c-0.24,0-0.45,0.03-0.62,0.09c-0.17,0.06-0.31,0.14-0.42,0.24c-0.11,0.1-0.19,0.22-0.24,0.36c-0.05,0.13-0.08,0.28-0.08,0.43
		c0,0.26,0.07,0.48,0.2,0.65c0.13,0.17,0.33,0.3,0.59,0.39l0.67,0.24c0.09,0.04,0.17,0.09,0.24,0.15c0.07,0.06,0.1,0.15,0.1,0.27
		c0,0.15-0.04,0.26-0.13,0.33c-0.09,0.07-0.2,0.11-0.35,0.11c-0.16,0-0.29-0.05-0.37-0.15c-0.09-0.1-0.13-0.23-0.13-0.39v-0.12
		H163.74z M162.29,30.38c0,0.1-0.02,0.19-0.06,0.26c-0.04,0.07-0.08,0.13-0.14,0.18c-0.06,0.05-0.12,0.08-0.19,0.1
		c-0.07,0.02-0.14,0.03-0.2,0.03c-0.13,0-0.22-0.05-0.28-0.15c-0.06-0.1-0.08-0.22-0.08-0.37c0-0.17,0.04-0.3,0.12-0.39
		c0.08-0.1,0.22-0.17,0.41-0.21c0.06-0.01,0.13-0.04,0.2-0.07c0.07-0.03,0.14-0.07,0.21-0.12V30.38z M161.4,28.93v-0.1
		c0-0.15,0.04-0.26,0.11-0.35c0.07-0.09,0.18-0.13,0.33-0.13c0.16,0,0.27,0.04,0.34,0.12c0.07,0.08,0.1,0.19,0.1,0.34
		c0,0.12-0.03,0.22-0.08,0.28c-0.06,0.06-0.15,0.12-0.3,0.15l-0.54,0.15c-0.16,0.05-0.31,0.1-0.42,0.16
		c-0.12,0.06-0.21,0.13-0.29,0.22c-0.08,0.09-0.13,0.2-0.17,0.32c-0.04,0.13-0.05,0.28-0.05,0.45c0,0.12,0.01,0.25,0.05,0.38
		c0.03,0.13,0.08,0.24,0.15,0.34c0.07,0.1,0.16,0.18,0.28,0.25c0.12,0.06,0.25,0.1,0.42,0.1c0.23,0,0.42-0.03,0.56-0.1
		c0.14-0.07,0.27-0.19,0.38-0.39h0.01c0.01,0.06,0.03,0.13,0.04,0.2c0.02,0.07,0.04,0.13,0.07,0.19h0.91
		c-0.05-0.11-0.08-0.21-0.09-0.31c-0.02-0.1-0.03-0.23-0.03-0.41v-1.95c0-0.16-0.02-0.32-0.05-0.46c-0.04-0.14-0.1-0.26-0.2-0.36
		c-0.1-0.1-0.23-0.18-0.41-0.23c-0.18-0.05-0.41-0.08-0.69-0.08c-0.18,0-0.35,0.02-0.51,0.06c-0.16,0.04-0.3,0.1-0.41,0.19
		c-0.12,0.09-0.21,0.21-0.28,0.36c-0.07,0.15-0.1,0.33-0.1,0.54v0.09H161.4z M156.72,31.5h1.68c0.29,0,0.53-0.04,0.73-0.12
		c0.2-0.08,0.35-0.18,0.48-0.31c0.12-0.13,0.21-0.28,0.26-0.46c0.05-0.18,0.08-0.36,0.08-0.55c0-0.33-0.08-0.59-0.24-0.79
		c-0.16-0.2-0.38-0.31-0.65-0.35V28.9c0.25-0.07,0.43-0.2,0.56-0.39c0.12-0.19,0.19-0.42,0.19-0.69c0-0.23-0.03-0.43-0.1-0.59
		c-0.07-0.16-0.17-0.29-0.29-0.38c-0.12-0.1-0.27-0.17-0.44-0.21c-0.17-0.04-0.36-0.06-0.56-0.06h-1.66V31.5z M157.71,27.31h0.36
		c0.25,0,0.43,0.05,0.55,0.15c0.11,0.1,0.17,0.26,0.17,0.5c0,0.23-0.06,0.4-0.19,0.5c-0.13,0.1-0.33,0.15-0.6,0.15h-0.28V27.31z
		 M157.71,29.29h0.43c0.11,0,0.21,0.01,0.3,0.03c0.09,0.02,0.17,0.06,0.24,0.12c0.07,0.06,0.12,0.13,0.16,0.23
		c0.04,0.1,0.06,0.21,0.06,0.35c0,0.28-0.07,0.48-0.22,0.59c-0.15,0.11-0.34,0.16-0.58,0.16h-0.39V29.29z"/>
	<path class="st6" d="M187.49,22.1h1.94v-0.81h-1.94V22.1z M185.01,21.41v-0.14c0-0.09,0.01-0.17,0.02-0.26
		c0.02-0.09,0.04-0.17,0.08-0.24c0.04-0.07,0.08-0.13,0.15-0.17c0.06-0.04,0.14-0.07,0.24-0.07c0.1,0,0.18,0.02,0.24,0.06
		c0.06,0.04,0.11,0.1,0.14,0.17c0.04,0.08,0.06,0.17,0.07,0.28c0.01,0.11,0.02,0.23,0.03,0.38H185.01z M186.89,21.97v-0.21
		c0-0.28-0.02-0.54-0.06-0.78c-0.04-0.23-0.11-0.43-0.21-0.59c-0.1-0.16-0.24-0.29-0.42-0.38s-0.4-0.13-0.68-0.13
		c-0.32,0-0.58,0.05-0.77,0.16c-0.19,0.1-0.34,0.25-0.44,0.43c-0.1,0.18-0.17,0.38-0.21,0.61c-0.04,0.23-0.05,0.47-0.05,0.72
		c0,0.23,0.01,0.46,0.03,0.7c0.02,0.24,0.08,0.45,0.17,0.64c0.09,0.19,0.23,0.35,0.43,0.47c0.19,0.12,0.46,0.18,0.81,0.18
		c0.46,0,0.79-0.12,1-0.35c0.21-0.23,0.33-0.57,0.35-1h-0.85c-0.03,0.23-0.08,0.41-0.15,0.52c-0.07,0.11-0.19,0.17-0.35,0.17
		c-0.09,0-0.16-0.02-0.22-0.07c-0.06-0.05-0.11-0.11-0.14-0.19c-0.04-0.08-0.06-0.17-0.08-0.28c-0.02-0.1-0.02-0.21-0.02-0.32v-0.3
		H186.89z M182.57,19.97v0.41h-0.01c-0.09-0.19-0.21-0.33-0.35-0.4c-0.14-0.07-0.28-0.11-0.41-0.11c-0.26,0-0.46,0.06-0.62,0.17
		c-0.15,0.11-0.27,0.26-0.35,0.44c-0.08,0.18-0.13,0.38-0.16,0.61c-0.02,0.22-0.04,0.45-0.04,0.66c0,0.67,0.1,1.16,0.29,1.44
		c0.19,0.29,0.48,0.43,0.85,0.43c0.15,0,0.3-0.04,0.44-0.12c0.14-0.08,0.26-0.19,0.36-0.33h0.01v0.49c0,0.19-0.04,0.35-0.12,0.48
		c-0.08,0.12-0.21,0.19-0.41,0.19c-0.06,0-0.12-0.01-0.17-0.03c-0.05-0.02-0.1-0.04-0.15-0.08c-0.1-0.07-0.15-0.16-0.15-0.28h-0.91
		c0,0.32,0.11,0.56,0.33,0.74c0.22,0.17,0.53,0.26,0.93,0.26c0.56,0,0.95-0.12,1.19-0.35c0.24-0.24,0.36-0.6,0.36-1.1v-3.52H182.57z
		 M181.59,21.32c0.01-0.17,0.04-0.31,0.07-0.41c0.04-0.1,0.09-0.18,0.15-0.22c0.06-0.05,0.15-0.07,0.26-0.07
		c0.19,0,0.32,0.09,0.39,0.28c0.07,0.19,0.11,0.51,0.11,0.96c0,0.16-0.01,0.3-0.02,0.43c-0.02,0.13-0.04,0.24-0.08,0.33
		c-0.04,0.09-0.09,0.17-0.16,0.22c-0.07,0.05-0.15,0.08-0.25,0.08c-0.1,0-0.18-0.03-0.24-0.08c-0.06-0.05-0.11-0.12-0.15-0.21
		c-0.03-0.09-0.06-0.19-0.07-0.31c-0.01-0.11-0.02-0.24-0.02-0.36C181.57,21.7,181.58,21.49,181.59,21.32 M178.18,20.92
		c0.06-0.2,0.2-0.31,0.4-0.31c0.21,0,0.35,0.1,0.41,0.31c0.06,0.2,0.09,0.51,0.09,0.91c0,0.4-0.03,0.71-0.09,0.91
		c-0.06,0.21-0.2,0.31-0.41,0.31c-0.21,0-0.34-0.1-0.4-0.31c-0.06-0.2-0.09-0.51-0.09-0.91C178.08,21.42,178.11,21.12,178.18,20.92
		 M179.12,23.68h0.91v-4.92h-0.95v1.56h-0.01c-0.1-0.15-0.21-0.26-0.34-0.33c-0.13-0.07-0.28-0.11-0.46-0.11
		c-0.39,0-0.68,0.15-0.86,0.46c-0.18,0.31-0.27,0.8-0.27,1.49c0,0.69,0.09,1.19,0.27,1.49c0.18,0.3,0.47,0.46,0.86,0.46
		c0.19,0,0.35-0.04,0.49-0.11c0.13-0.08,0.25-0.2,0.36-0.38h0.01V23.68z M174.79,21.41v-0.14c0-0.09,0.01-0.17,0.02-0.26
		c0.01-0.09,0.04-0.17,0.08-0.24c0.04-0.07,0.09-0.13,0.15-0.17c0.06-0.04,0.14-0.07,0.24-0.07s0.18,0.02,0.24,0.06
		c0.06,0.04,0.11,0.1,0.14,0.17c0.04,0.08,0.06,0.17,0.07,0.28c0.01,0.11,0.02,0.23,0.03,0.38H174.79z M176.67,21.97v-0.21
		c0-0.28-0.02-0.54-0.06-0.78c-0.04-0.23-0.11-0.43-0.21-0.59c-0.1-0.16-0.24-0.29-0.42-0.38c-0.18-0.09-0.4-0.13-0.68-0.13
		c-0.32,0-0.58,0.05-0.77,0.16c-0.19,0.1-0.34,0.25-0.44,0.43c-0.1,0.18-0.17,0.38-0.21,0.61c-0.04,0.23-0.05,0.47-0.05,0.72
		c0,0.23,0.01,0.46,0.03,0.7c0.02,0.24,0.08,0.45,0.17,0.64c0.09,0.19,0.23,0.35,0.43,0.47c0.19,0.12,0.46,0.18,0.81,0.18
		c0.45,0,0.79-0.12,1-0.35c0.21-0.23,0.33-0.57,0.34-1h-0.85c-0.03,0.23-0.08,0.41-0.15,0.52c-0.07,0.11-0.19,0.17-0.35,0.17
		c-0.09,0-0.16-0.02-0.22-0.07c-0.06-0.05-0.11-0.11-0.14-0.19c-0.04-0.08-0.06-0.17-0.08-0.28c-0.02-0.1-0.02-0.21-0.02-0.32v-0.3
		H176.67z M172.3,23.68h0.95v-4.92h-0.95V23.68z M167.91,23.68h1.1l0.46-2.63h0.01l0.49,2.63h1.08l0.8-3.71h-0.91l-0.45,2.63h-0.01
		L170,19.97h-1.03l-0.46,2.63h-0.01l-0.43-2.63h-0.95L167.91,23.68z M164.91,21.3c0.01-0.16,0.03-0.3,0.07-0.41
		c0.03-0.12,0.08-0.21,0.15-0.27c0.07-0.06,0.16-0.1,0.28-0.1c0.19,0,0.33,0.1,0.4,0.3c0.07,0.2,0.11,0.54,0.11,1s-0.04,0.8-0.11,1
		c-0.07,0.2-0.21,0.3-0.4,0.3c-0.12,0-0.21-0.03-0.28-0.1c-0.07-0.06-0.12-0.15-0.15-0.27c-0.03-0.12-0.06-0.25-0.07-0.41
		c-0.01-0.16-0.01-0.34-0.01-0.52C164.89,21.64,164.9,21.47,164.91,21.3 M164.01,22.68c0.04,0.24,0.12,0.45,0.23,0.61
		c0.11,0.17,0.26,0.29,0.45,0.37c0.19,0.08,0.42,0.12,0.71,0.11c0.27,0,0.5-0.04,0.68-0.13c0.19-0.09,0.34-0.21,0.45-0.37
		c0.11-0.16,0.2-0.37,0.25-0.61c0.05-0.24,0.08-0.52,0.08-0.84c0-0.32-0.02-0.6-0.07-0.85c-0.05-0.25-0.12-0.45-0.23-0.62
		c-0.11-0.16-0.26-0.29-0.45-0.37c-0.19-0.08-0.42-0.12-0.71-0.11c-0.27,0-0.5,0.04-0.69,0.13c-0.19,0.08-0.34,0.21-0.45,0.37
		c-0.11,0.16-0.2,0.37-0.25,0.61c-0.05,0.24-0.08,0.52-0.08,0.84C163.94,22.16,163.97,22.44,164.01,22.68 M160.57,23.68h0.95v-2.46
		c0-0.41,0.17-0.61,0.5-0.61c0.14,0,0.24,0.04,0.31,0.11c0.06,0.08,0.1,0.21,0.1,0.4v2.56h0.95v-2.75c0-0.37-0.08-0.64-0.24-0.81
		c-0.16-0.17-0.4-0.25-0.7-0.25c-0.21,0-0.39,0.04-0.55,0.13c-0.16,0.08-0.29,0.22-0.39,0.4h-0.01v-0.43h-0.91V23.68z M156.72,18.76
		v4.92h0.99v-1.46l0.36-0.56l1.01,2.02h1.12l-1.49-2.81l1.34-2.11h-1.08l-1.26,1.97h-0.01v-1.97H156.72z"/>
	<rect x="108.25" y="0.23" class="st2" width="227.74" height="62.54"/>
</g>
</svg>
